<svg width="34" height="26" viewBox="0 0 34 26" fill="none" xmlns="http://www.w3.org/2000/svg">
<path d="M-1.65924e-05 25.296H7.68398V24.208L4.01198 23.732H3.36598L-1.65924e-05 24.208V25.296ZM2.34598 25.296H4.04598L10.914 3.46802L11.016 2.99202H10.302L17.476 25.296H22.406L13.77 1.9908e-05H10.812L2.34598 25.296ZM6.11998 17.102H17.374L17.136 15.98H6.35798L6.11998 17.102ZM13.532 25.296H24.582V24.174L19.856 23.698H18.122L13.532 24.174V25.296ZM30.6032 25.874C32.1672 25.874 33.3912 24.616 33.3912 23.12C33.3912 21.59 32.1672 20.332 30.6032 20.332C29.0392 20.332 27.8492 21.59 27.8492 23.12C27.8492 24.616 29.0392 25.874 30.6032 25.874Z" fill="white"/>
</svg>
