<svg width="920" height="280" viewBox="0 0 920 280" fill="none" xmlns="http://www.w3.org/2000/svg">
<rect x="860" width="60" height="280" rx="30" fill="#333333"/>
<path d="M887.872 86.684H884.82C884.904 87.16 884.988 88.28 884.988 88.84C884.988 90.016 884.932 94.02 884.932 97.156C884.932 100.32 885.044 104.128 885.044 105.668C885.044 106.592 884.708 106.928 884.12 106.928C883.224 106.928 881.572 105.976 881.572 104.912C881.572 103.596 883.532 101.944 886.108 100.964C888.376 100.04 890.7 99.536 893.08 99.536C895.6 99.536 897.504 100.712 897.504 102.84C897.504 105.136 895.488 106.34 893.164 106.788C892.184 106.984 891.008 106.984 889.888 106.984L890.868 109.784C891.904 109.728 893.136 109.644 894.368 109.364C898.4 108.412 900.332 106.116 900.332 102.84C900.332 99.34 897.224 97.128 893.108 97.128C890.98 97.128 888.236 97.604 885.8 98.528C882.188 99.844 878.856 102.504 878.856 105.024C878.856 107.684 882.524 109.868 884.876 109.868C886.528 109.868 887.592 109.028 887.592 106.116C887.592 104.436 887.424 99.928 887.424 97.044C887.424 94.3 887.564 90.66 887.648 88.812C887.704 88.112 887.788 87.188 887.872 86.684ZM896.076 89.708L894.844 91.808C896.58 92.704 899.856 94.636 901.2 95.84L902.572 93.628C901.172 92.564 898.12 90.716 896.076 89.708ZM879.444 91.416L879.5 94.076C880.424 94.16 881.46 94.216 883.14 94.216C885.604 94.216 890.056 93.656 892.996 92.956L892.94 90.24C890.14 91.052 885.828 91.612 883.056 91.612C882.076 91.612 881.012 91.584 879.444 91.416ZM887.564 126.892V127.284C887.172 133.22 886.696 135.74 885.968 136.356C885.632 136.636 885.296 136.692 884.708 136.692C884.008 136.692 882.16 136.664 880.368 136.496C880.9 137.252 881.292 138.4 881.348 139.268C883.112 139.324 884.848 139.352 885.772 139.268C886.892 139.156 887.592 138.932 888.264 138.204C889.244 137.168 889.748 134.508 890.224 128.068C890.28 127.704 890.308 126.892 890.308 126.892H887.564ZM879.472 120.9C879.08 123.924 878.408 127.788 877.792 130.252L880.452 130.672C881.012 128.152 881.684 124.12 882.188 120.9H879.472ZM897.224 113.732V139.352H899.884V113.732H897.224ZM879.808 126.892L879.472 129.356H888.376V126.892H879.808ZM880.396 120.9V123.364H890.14V114.516H878.632V116.98H887.536V120.9H880.396ZM886.5 144.028V146.268H902.712V144.028H886.5ZM887.256 148.956V151.084H902.88V148.956H887.256ZM888.376 156.684V158.812H899.968V156.684H888.376ZM885.296 144.028V151.616C885.296 155.872 885.044 161.836 882.3 166.008C882.944 166.232 884.036 166.848 884.512 167.268C887.368 162.872 887.816 156.208 887.816 151.616V144.028H885.296ZM892.94 141.368V145.484H895.656V141.368H892.94ZM890.56 146.912V155.34H899.856V146.912H897.42V153.268H892.912V146.912H890.56ZM899.184 156.684V157.048C897.392 161.584 892.38 164.188 886.864 165.14C887.312 165.672 887.9 166.68 888.124 167.296C894.172 165.952 899.492 163.068 901.732 157.3L900.108 156.6L899.66 156.684H899.184ZM892.072 158.616L889.804 159.316C892.044 163.544 896.132 166.232 901.676 167.352C902.012 166.68 902.712 165.672 903.272 165.14C898.008 164.328 893.948 162.06 892.072 158.616ZM878.492 143.58C880.144 144.336 882.188 145.624 883.168 146.604L884.708 144.42C883.7 143.496 881.6 142.32 879.976 141.62L878.492 143.58ZM876.924 151.084C878.632 151.812 880.704 153.044 881.712 153.968L883.252 151.784C882.188 150.86 880.06 149.712 878.38 149.068L876.924 151.084ZM877.26 165.504L879.668 167.016C881.012 164.328 882.552 160.912 883.728 157.916L881.572 156.376C880.256 159.652 878.52 163.292 877.26 165.504ZM885.968 171.244L882.468 171.216C882.664 172.14 882.748 173.26 882.748 174.408C882.748 177.04 882.468 184.124 882.468 188.016C882.468 192.608 885.268 194.372 889.468 194.372C895.6 194.372 899.296 190.816 901.144 188.212L899.156 185.832C897.168 188.744 894.34 191.46 889.524 191.46C887.116 191.46 885.352 190.452 885.352 187.54C885.352 183.76 885.548 177.46 885.688 174.408C885.716 173.4 885.828 172.252 885.968 171.244Z" fill="white"/>
<path d="M789 169V109L819 139L789 169Z" fill="#B71B26"/>
<rect x="688" width="60" height="280" rx="30" fill="#333333"/>
<path d="M719.064 118.148V120.556H730.74V118.148H719.064ZM722.844 121.452V135.452H725.084V121.452H722.844ZM719.596 114.34C718.812 117.756 717.412 121.004 715.452 123.076C716.04 123.496 717.048 124.448 717.468 124.924C719.568 122.516 721.22 118.82 722.172 114.872L719.596 114.34ZM715.9 128.956L716.852 131.14L729.088 125.4L728.164 123.244L715.9 128.956ZM718.308 123.58V136.684C718.308 139.512 719.148 140.268 722.172 140.268C722.844 140.268 726.848 140.268 727.548 140.268C730.068 140.268 730.796 139.26 731.104 135.844C730.432 135.676 729.452 135.312 728.892 134.92C728.752 137.524 728.556 138.028 727.352 138.028C726.484 138.028 723.068 138.028 722.396 138.028C720.912 138.028 720.688 137.832 720.688 136.712V123.58H718.308ZM727.52 123.748C727.52 128.116 727.492 131.14 727.436 131.588C727.38 131.98 727.212 132.064 726.932 132.064C726.68 132.064 726.12 132.064 725.7 132.036C725.952 132.54 726.148 133.408 726.204 134.024C726.876 134.052 727.772 134.024 728.416 133.8C729.144 133.576 729.592 133.044 729.648 132.092C729.76 131.252 729.788 128.032 729.788 124.028L729.9 123.636L728.248 123.02L727.8 123.328L727.296 123.748H727.52ZM705.148 118.82V121.284H717.02V118.82H705.148ZM709.32 124.756V127.192H714.08V124.756H709.32ZM709.796 114.424V119.66H712.344V114.424H709.796ZM708.06 120.276C707.976 127.388 707.78 134.5 704.784 138.56C705.456 138.952 706.296 139.764 706.744 140.352C710.076 135.76 710.44 128.088 710.58 120.276H708.06ZM713.212 124.756V125.288C713.072 134.024 712.904 137.048 712.456 137.664C712.232 138.028 711.98 138.084 711.616 138.084C711.196 138.084 710.272 138.084 709.264 137.972C709.628 138.616 709.852 139.624 709.908 140.352C711.084 140.38 712.176 140.38 712.848 140.296C713.604 140.184 714.108 139.932 714.584 139.26C715.312 138.28 715.452 135.06 715.62 125.876C715.62 125.54 715.62 124.756 715.62 124.756H713.212ZM706.856 145.42V148.164H729.228V145.42H706.856ZM705.344 163.648V166.308H730.712V163.648H705.344ZM716.404 146.876V164.74H719.4V146.876H716.404Z" fill="white"/>
<path opacity="0.9" d="M617 169V109L647 139L617 169Z" fill="#B71B26"/>
<rect x="516" width="60" height="280" rx="30" fill="#333333"/>
<path d="M553.728 100.544L551.964 101.3C552.72 102.336 553.588 103.988 554.148 105.136L555.968 104.324C555.408 103.26 554.428 101.552 553.728 100.544ZM556.864 99.396L555.1 100.124C555.856 101.16 556.752 102.756 557.34 103.932L559.132 103.148C558.628 102.14 557.592 100.404 556.864 99.396ZM537.992 103.512V106.368C540.204 106.536 542.556 106.676 545.384 106.676C547.932 106.676 551.096 106.48 553 106.34V103.456C550.956 103.68 548.016 103.848 545.356 103.848C542.556 103.848 540.008 103.736 537.992 103.512ZM539.644 114.824L536.788 114.544C536.536 115.608 536.256 116.924 536.256 118.436C536.256 122.02 539.448 124.008 545.328 124.008C549.22 124.008 552.636 123.588 554.764 123.028L554.736 120.004C552.524 120.648 548.996 121.068 545.244 121.068C541.016 121.068 539.112 119.752 539.112 117.792C539.112 116.812 539.308 115.86 539.644 114.824ZM533.652 143.72V145.96H558.376V143.72H533.652ZM533.82 129.468V131.484H545.048V129.468H533.82ZM545.692 128.6V130.84H556.64V128.6H545.692ZM534.24 133.752V135.768H544.684V133.752H534.24ZM547.624 144.672L545.16 145.036C547.148 150.216 550.816 152.568 557.508 153.408C557.872 152.624 558.544 151.504 559.16 150.888C552.888 150.412 549.192 148.62 547.624 144.672ZM555.688 128.6V129.02C555.464 135.516 555.184 137.896 554.708 138.456C554.456 138.736 554.232 138.792 553.812 138.792C553.364 138.792 552.356 138.792 551.236 138.68C551.628 139.324 551.908 140.332 551.964 141.06C553.196 141.088 554.372 141.088 555.044 141.004C555.856 140.92 556.388 140.696 556.864 140.08C557.592 139.184 557.9 136.552 558.18 129.636C558.208 129.328 558.208 128.6 558.208 128.6H555.688ZM533.344 139.156L533.568 141.368C536.704 140.976 541.044 140.416 545.216 139.828L545.16 137.756C540.848 138.288 536.312 138.848 533.344 139.156ZM549.444 129.384C549.248 134.312 548.716 137.672 544.796 139.576C545.328 140.024 546.028 140.892 546.308 141.48C550.844 139.128 551.656 135.152 551.936 129.384H549.444ZM538.328 127.368V139.436L540.792 139.1V127.368H538.328ZM544.46 141.844V144.252C544.46 146.604 543.06 149.628 532.98 151.168C533.484 151.784 534.184 152.764 534.52 153.408C545.524 151.672 547.148 147.696 547.148 144.336V141.844H544.46ZM546.084 167.688C547.596 169.704 549.164 172.448 549.724 174.212L552.048 173.008C551.404 171.216 549.752 168.556 548.24 166.596L546.084 167.688ZM546.588 160.296V162.816H556.976V160.296H546.588ZM555.856 160.296V160.856C555.492 172.672 555.044 177.348 554.092 178.328C553.784 178.692 553.448 178.776 552.86 178.776C552.16 178.776 550.48 178.776 548.66 178.608C549.136 179.364 549.472 180.512 549.528 181.268C551.208 181.352 552.916 181.38 553.896 181.268C555.016 181.128 555.688 180.876 556.388 179.924C557.564 178.496 557.956 174.1 558.404 161.584C558.432 161.248 558.432 160.296 558.432 160.296H555.856ZM547.26 155.34C546.252 159.064 544.516 162.732 542.332 165.028C543.004 165.392 544.18 166.176 544.712 166.624C546.84 164.076 548.772 160.072 549.976 155.956L547.26 155.34ZM537.264 155.396C536.592 157.3 535.332 159.988 534.296 161.64L536.116 162.396C537.208 160.856 538.524 158.364 539.616 156.236L537.264 155.396ZM540.652 158.644C539.14 161.612 536.536 165.784 534.38 168.304L536.032 169.144C538.16 166.736 540.904 162.76 542.92 159.596L540.652 158.644ZM532.896 161.612C534.38 162.956 536.116 164.888 536.844 166.204L538.216 164.16C537.488 162.928 535.724 161.108 534.184 159.82L532.896 161.612ZM539.84 165.252C540.96 167.128 542.052 169.62 542.416 171.188L544.488 170.236C544.068 168.668 542.92 166.26 541.772 164.412L539.84 165.252ZM532.868 167.828L533.092 170.152C535.78 169.984 539.392 169.788 542.92 169.536V167.408C539.196 167.576 535.416 167.744 532.868 167.828ZM540.456 172.084C541.184 173.792 541.94 176.06 542.192 177.544L544.292 176.788C543.984 175.332 543.2 173.148 542.416 171.44L540.456 172.084ZM534.268 171.58C533.96 174.016 533.456 176.508 532.588 178.188C533.148 178.412 534.156 178.888 534.632 179.196C535.472 177.404 536.144 174.632 536.48 171.972L534.268 171.58ZM537.488 168.92V181.408H539.868V168.92H537.488Z" fill="white"/>
<path opacity="0.8" d="M445 169V109L475 139L445 169Z" fill="#B71B26"/>
<rect x="344" width="60" height="280" rx="30" fill="#333333"/>
<path d="M371.872 86.684H368.82C368.904 87.16 368.988 88.28 368.988 88.84C368.988 90.016 368.932 94.02 368.932 97.156C368.932 100.32 369.044 104.128 369.044 105.668C369.044 106.592 368.708 106.928 368.12 106.928C367.224 106.928 365.572 105.976 365.572 104.912C365.572 103.596 367.532 101.944 370.108 100.964C372.376 100.04 374.7 99.536 377.08 99.536C379.6 99.536 381.504 100.712 381.504 102.84C381.504 105.136 379.488 106.34 377.164 106.788C376.184 106.984 375.008 106.984 373.888 106.984L374.868 109.784C375.904 109.728 377.136 109.644 378.368 109.364C382.4 108.412 384.332 106.116 384.332 102.84C384.332 99.34 381.224 97.128 377.108 97.128C374.98 97.128 372.236 97.604 369.8 98.528C366.188 99.844 362.856 102.504 362.856 105.024C362.856 107.684 366.524 109.868 368.876 109.868C370.528 109.868 371.592 109.028 371.592 106.116C371.592 104.436 371.424 99.928 371.424 97.044C371.424 94.3 371.564 90.66 371.648 88.812C371.704 88.112 371.788 87.188 371.872 86.684ZM380.076 89.708L378.844 91.808C380.58 92.704 383.856 94.636 385.2 95.84L386.572 93.628C385.172 92.564 382.12 90.716 380.076 89.708ZM363.444 91.416L363.5 94.076C364.424 94.16 365.46 94.216 367.14 94.216C369.604 94.216 374.056 93.656 376.996 92.956L376.94 90.24C374.14 91.052 369.828 91.612 367.056 91.612C366.076 91.612 365.012 91.584 363.444 91.416ZM367.616 121.208H380.384V123.588H367.616V121.208ZM367.616 125.8H380.384V128.208H367.616V125.8ZM367.616 116.644H380.384V119.024H367.616V116.644ZM365.04 114.32V130.532H383.072V114.32H365.04ZM375.568 128.796V135.656C375.568 138.344 376.324 139.156 379.292 139.156C379.88 139.156 382.82 139.156 383.464 139.156C386.012 139.156 386.74 138.064 387.048 133.836C386.32 133.64 385.172 133.22 384.612 132.744C384.472 136.16 384.304 136.636 383.24 136.636C382.54 136.636 380.132 136.636 379.6 136.636C378.48 136.636 378.256 136.496 378.256 135.656V128.796H375.568ZM368.792 129.636C368.344 133.556 367.28 135.852 360.98 137.084C361.512 137.644 362.24 138.736 362.464 139.436C369.576 137.812 371.088 134.648 371.62 129.636H368.792ZM365.404 143.832V167.324H367.98V143.832H365.404ZM361.316 149.096V151.588H370.976V149.096H361.316ZM365.6 150.244C364.648 153.548 362.576 157.776 360.588 160.016C361.008 160.66 361.624 161.752 361.876 162.508C364.004 159.848 366.104 154.892 367.196 150.916L365.6 150.244ZM369.632 141.732C367.588 142.6 364.116 143.356 361.064 143.804C361.372 144.392 361.736 145.288 361.848 145.848C365.012 145.484 368.792 144.784 371.424 143.776L369.632 141.732ZM367.756 152.764L366.552 153.828C367.42 154.864 369.352 157.496 369.996 158.728L371.536 156.628C371.004 155.984 368.456 153.38 367.756 152.764ZM377.472 141.368V150.076H380.104V141.368H377.472ZM371.676 142.824V144.504H386.264V142.824H371.676ZM372.264 145.736V147.36H385.564V145.736H372.264ZM370.836 148.62V150.356H386.908V148.62H370.836ZM375.036 156.404H382.904V157.972H375.036V156.404ZM375.036 159.568H382.904V161.136H375.036V159.568ZM375.036 153.296H382.904V154.808H375.036V153.296ZM372.656 151.56V162.872H385.396V151.56H372.656ZM380.076 164.132C381.84 165.196 383.8 166.54 384.892 167.408L387.216 166.12C385.928 165.224 383.716 163.908 381.868 162.844L380.076 164.132ZM375.792 162.732C374.476 163.852 371.788 165.14 369.52 165.812C370.052 166.26 370.808 166.988 371.2 167.492C373.468 166.764 376.24 165.42 377.92 164.076L375.792 162.732ZM370.08 170.964L367.056 170.852C367 171.608 366.944 172.504 366.832 173.428C366.468 175.92 366.02 179.7 366.02 182.276C366.02 184.096 366.188 185.692 366.328 186.728L369.016 186.532C368.848 185.216 368.848 184.292 368.932 183.368C369.184 179.784 372.208 174.828 375.54 174.828C378.172 174.828 379.628 177.628 379.628 181.912C379.628 188.688 375.12 190.928 369.1 191.852L370.752 194.344C377.752 193.084 382.54 189.556 382.54 181.884C382.54 176.004 379.74 172.308 376.044 172.308C372.74 172.308 370.08 175.276 368.876 177.768C369.044 176.004 369.576 172.7 370.08 170.964Z" fill="white"/>
<path opacity="0.7" d="M273 169V109L303 139L273 169Z" fill="#B71B26"/>
<rect x="172" width="60" height="280" rx="30" fill="#333333"/>
<path d="M189.26 86.824V89.288H199.004V86.824H189.26ZM189.568 94.804V97.24H198.724V94.804H189.568ZM188.672 104.66L189.372 107.18C192.172 106.34 195.952 105.248 199.48 104.184L199.144 101.832C195.308 102.924 191.332 104.016 188.672 104.66ZM202.672 93.124H211.044V95.476H202.672V93.124ZM202.672 97.548H211.044V99.9H202.672V97.548ZM202.672 88.728H211.044V91.052H202.672V88.728ZM200.208 86.544V102.14H213.648V86.544H200.208ZM207.432 101.104V108.076C207.432 110.456 207.936 111.212 210.204 111.212C210.652 111.212 212.22 111.212 212.696 111.212C214.544 111.212 215.16 110.232 215.412 106.62C214.712 106.452 213.676 106.032 213.144 105.64C213.088 108.468 212.976 108.916 212.388 108.916C212.052 108.916 210.904 108.916 210.652 108.916C210.064 108.916 209.952 108.804 209.952 108.048V101.104H207.432ZM202.56 101.692C202.168 105.444 201.188 107.992 195.98 109.364C196.512 109.868 197.184 110.904 197.464 111.548C203.344 109.756 204.688 106.452 205.164 101.692H202.56ZM192.956 87.804V104.688L195.504 104.268V87.804H192.956ZM205.556 113.368V132.996H208.048V113.368H205.556ZM196.988 124.792L197.968 127.144L212.78 120.788L211.828 118.52L196.988 124.792ZM199.9 116.028V134.48C199.9 137.896 200.88 138.764 204.38 138.764C205.164 138.764 210.064 138.764 210.876 138.764C213.956 138.764 214.796 137.504 215.16 133.584C214.432 133.444 213.396 133.024 212.808 132.604C212.584 135.684 212.304 136.384 210.708 136.384C209.7 136.384 205.416 136.384 204.52 136.384C202.728 136.384 202.42 136.104 202.42 134.508V116.028H199.9ZM211.324 118.828C211.324 124.68 211.296 128.264 211.156 128.908C211.044 129.496 210.82 129.608 210.428 129.608C210.148 129.608 209.364 129.608 208.776 129.552C209.084 130.14 209.28 131.148 209.364 131.82C210.204 131.82 211.352 131.82 212.136 131.54C212.976 131.26 213.48 130.672 213.62 129.468C213.788 128.348 213.844 124.512 213.844 119.22L213.956 118.744L212.108 118.072L211.632 118.408L211.1 118.828H211.324ZM189.064 120.004V122.524H198.108V120.004H189.064ZM192.536 113.732V132.072H195V113.732H192.536ZM188.756 132.492L189.82 135.124C192.34 134.004 195.532 132.548 198.528 131.092L197.94 128.74C194.58 130.168 191.052 131.652 188.756 132.492ZM203.036 147.36V149.348H210.372V147.36H203.036ZM202.84 151.672V153.688H210.68V151.672H202.84ZM205.612 145.204V152.848H207.712V145.204H205.612ZM200.712 142.488V144.756H212.668V142.488H200.712ZM204.212 155.508V157.468H208.3V160.884H204.212V162.844H210.26V155.508H204.212ZM203.148 155.508V163.908H205.08V155.508H203.148ZM211.716 142.488V164.216C211.716 164.664 211.576 164.776 211.184 164.776C210.736 164.776 209.364 164.804 207.964 164.748C208.328 165.448 208.636 166.652 208.748 167.352C210.792 167.352 212.192 167.296 213.032 166.876C213.9 166.428 214.152 165.644 214.152 164.244V142.488H211.716ZM199.396 142.488V152.736C199.396 156.824 199.256 162.284 197.156 166.092C197.716 166.344 198.78 167.1 199.228 167.52C201.496 163.432 201.804 157.132 201.804 152.736V142.488H199.396ZM190.1 149.908V151.952H197.408V149.908H190.1ZM190.296 142.32V144.364H197.352V142.32H190.296ZM190.1 153.688V155.732H197.408V153.688H190.1ZM188.952 146.016V148.172H198.136V146.016H188.952ZM191.332 157.496V159.624H195.224V163.656H191.332V165.784H197.38V157.496H191.332ZM190.044 157.496V167.044H192.172V157.496H190.044ZM189.4 192.468V194.82H214.628V192.468H189.4ZM195.364 185.356V187.232H208.608V185.356H195.364ZM195.364 188.884V190.788H208.608V188.884H195.364ZM194.076 181.548V193.868H196.68V183.732H207.236V193.756H209.952V181.548H194.076ZM189.54 172.756V175.052H214.488V172.756H189.54ZM200.572 169.368V180.708H203.204V169.368H200.572ZM199.228 173.484C197.072 176.536 192.844 179.448 188.84 180.792C189.4 181.296 190.128 182.248 190.52 182.836C194.664 181.212 198.92 177.992 201.384 174.324L199.228 173.484ZM204.464 173.512L202.364 174.352C204.856 177.936 209.14 181.128 213.368 182.696C213.76 182.024 214.516 181.044 215.104 180.54C210.96 179.28 206.648 176.508 204.464 173.512Z" fill="white"/>
<path opacity="0.6" d="M101 169V109L131 139L101 169Z" fill="#B71B26"/>
<rect width="60" height="280" rx="30" fill="#333333"/>
<path d="M37.728 100.544L35.964 101.3C36.72 102.336 37.588 103.988 38.148 105.136L39.968 104.324C39.408 103.26 38.428 101.552 37.728 100.544ZM40.864 99.396L39.1 100.124C39.856 101.16 40.752 102.756 41.34 103.932L43.132 103.148C42.628 102.14 41.592 100.404 40.864 99.396ZM21.992 103.512V106.368C24.204 106.536 26.556 106.676 29.384 106.676C31.932 106.676 35.096 106.48 37 106.34V103.456C34.956 103.68 32.016 103.848 29.356 103.848C26.556 103.848 24.008 103.736 21.992 103.512ZM23.644 114.824L20.788 114.544C20.536 115.608 20.256 116.924 20.256 118.436C20.256 122.02 23.448 124.008 29.328 124.008C33.22 124.008 36.636 123.588 38.764 123.028L38.736 120.004C36.524 120.648 32.996 121.068 29.244 121.068C25.016 121.068 23.112 119.752 23.112 117.792C23.112 116.812 23.308 115.86 23.644 114.824ZM30.42 135.628V138.036H40.752V135.628H30.42ZM30.448 142.348V144.756H40.78V142.348H30.448ZM30.42 149.068V151.476H40.78V149.068H30.42ZM29.132 128.964V153.156H31.68V131.484H39.38V153.044H42.04V128.964H29.132ZM17.344 133.276V135.796H28.012V133.276H17.344ZM21.684 127.368V153.352H24.232V127.368H21.684ZM21.544 134.928C20.704 138.764 18.744 143.384 16.672 145.876C17.092 146.52 17.736 147.584 17.988 148.312C20.228 145.456 22.244 140.052 23.196 135.488L21.544 134.928ZM24.008 137.728L22.748 138.96C23.728 140.22 25.912 143.328 26.724 144.812L28.292 142.656C27.648 141.872 24.82 138.512 24.008 137.728ZM33.612 162.816C36.16 164.384 39.548 166.652 41.144 168.136L42.908 166.12C41.2 164.692 37.756 162.508 35.264 161.08L33.612 162.816ZM35.292 167.128H33.92V171.244C33.92 173.008 32.744 177.152 26.724 179.252C27.2 179.784 27.9 180.82 28.208 181.408C32.688 179.756 34.788 176.452 35.264 174.744C35.712 176.424 37.672 179.868 41.648 181.408C41.984 180.764 42.712 179.756 43.188 179.14C37.672 177.096 36.608 172.952 36.608 171.244V167.128H35.292ZM34.144 155.368C33.892 161.164 33.248 164.496 27.424 166.26C27.984 166.764 28.656 167.716 28.908 168.36C35.432 166.148 36.412 162.088 36.748 155.368H34.144ZM30 157.16C29.72 158.952 28.936 160.8 27.844 161.78L29.888 162.732C31.176 161.528 31.904 159.484 32.184 157.608L30 157.16ZM29.692 169.256C29.328 171.216 28.46 173.176 27.144 174.184L29.3 175.36C30.756 174.072 31.652 171.86 32.016 169.732L29.692 169.256ZM39.94 156.992C39.492 158.364 38.512 160.352 37.756 161.584L39.716 162.368C40.528 161.22 41.564 159.456 42.488 157.832L39.94 156.992ZM40.192 169.06C39.632 170.544 38.568 172.672 37.728 173.96L39.772 174.744C40.696 173.54 41.816 171.608 42.796 169.928L40.192 169.06ZM18.268 163.908V165.952H26.584V163.908H18.268ZM18.38 156.32V158.364H26.5V156.32H18.38ZM18.268 167.688V169.732H26.584V167.688H18.268ZM16.952 160.016V162.172H27.508V160.016H16.952ZM19.444 171.496V173.652H24.316V177.684H19.444V179.84H26.612V171.496H19.444ZM18.24 171.496V181.044H20.508V171.496H18.24Z" fill="white"/>
</svg>
