<svg width="33" height="34" viewBox="0 0 33 34" fill="none" xmlns="http://www.w3.org/2000/svg">
<path d="M17.17 33.558C18.87 33.558 20.604 33.116 21.93 32.334L21.556 31.416C20.57 31.824 19.754 31.994 18.734 31.994C15.504 31.994 13.498 29.546 13.906 25.636H9.31598V25.976C9.31598 29.988 11.798 33.558 17.17 33.558ZM11.73 26.452C18.054 26.452 23.46 21.794 23.46 13.226C23.46 4.62403 18.02 2.81334e-05 11.73 2.81334e-05C5.47398 2.81334e-05 -2.2389e-05 4.69203 -2.2389e-05 13.226C-2.2389e-05 21.862 5.47398 26.452 11.73 26.452ZM11.73 25.194C7.24198 25.194 5.06598 20.026 5.06598 13.226C5.06598 6.46003 7.24198 1.25803 11.73 1.25803C16.252 1.25803 18.394 6.46003 18.394 13.226C18.394 20.026 16.252 25.194 11.73 25.194ZM29.4804 26.384C31.0444 26.384 32.2684 25.126 32.2684 23.63C32.2684 22.1 31.0444 20.842 29.4804 20.842C27.9164 20.842 26.7264 22.1 26.7264 23.63C26.7264 25.126 27.9164 26.384 29.4804 26.384Z" fill="white"/>
</svg>
