<svg width="1020" height="120" viewBox="0 0 1020 120" fill="none" xmlns="http://www.w3.org/2000/svg">
<path d="M67.96 92.18L67.98 93.7C69.14 93.78 70.18 93.82 71.34 93.82C73.68 93.82 76.12 93.66 78.24 93.3V91.76C76.22 92.18 73.76 92.36 71.36 92.36C70.18 92.36 69.1 92.3 67.96 92.18ZM74.96 88.6H73.16C73.22 88.96 73.24 89.48 73.24 89.84C73.24 90.54 73.26 91.8 73.26 93.18C73.26 95.82 73.52 99.56 73.52 101C73.52 102.34 73.04 103.18 71.36 103.18C69.9 103.18 68.92 102.64 68.92 101.6C68.92 100.64 69.96 99.98 71.46 99.98C74 99.98 76.02 101.34 78.12 103.3L78.98 101.98C77.3 100.46 74.96 98.76 71.6 98.76C68.96 98.76 67.48 100.08 67.48 101.76C67.48 103.56 68.94 104.64 71.62 104.64C74.32 104.64 75.08 103.04 75.08 101.4C75.08 99.34 74.78 96.22 74.78 93.14C74.78 91.96 74.8 90.54 74.84 89.8C74.86 89.42 74.9 89 74.96 88.6ZM65.1 88.74L63.34 88.58C63.32 89.02 63.28 89.54 63.2 90.02C62.96 91.66 62.28 95.48 62.28 98.42C62.28 101.12 62.66 103.32 63.04 104.76L64.46 104.64C64.44 104.44 64.42 104.14 64.4 103.94C64.38 103.72 64.42 103.32 64.48 103.04C64.68 102.06 65.42 100.02 65.92 98.62L65.1 97.98C64.76 98.8 64.26 100.02 63.94 100.94C63.8 99.96 63.74 99.12 63.74 98.14C63.74 95.9 64.34 91.94 64.74 90.08C64.82 89.72 64.98 89.06 65.1 88.74ZM86.46 90.06L84.52 90.02C84.64 90.48 84.64 91.34 84.64 91.8C84.64 92.96 84.68 95.4 84.86 97.12C85.42 102.3 87.22 104.18 89.12 104.18C90.48 104.18 91.68 103.02 92.9 99.64L91.64 98.22C91.12 100.22 90.18 102.28 89.16 102.28C87.72 102.28 86.76 100.06 86.42 96.72C86.28 95.08 86.26 93.24 86.28 92C86.3 91.48 86.36 90.52 86.46 90.06ZM96.86 90.6L95.32 91.14C97.22 93.48 98.44 97.6 98.78 101.2L100.4 100.56C100.1 97.18 98.66 92.92 96.86 90.6ZM107.88 99.14C106.2 99.14 104.82 100.5 104.82 102.18C104.82 103.86 106.2 105.22 107.88 105.22C109.56 105.22 110.92 103.86 110.92 102.18C110.92 100.5 109.56 99.14 107.88 99.14ZM107.88 104.2C106.76 104.2 105.84 103.3 105.84 102.18C105.84 101.06 106.76 100.16 107.88 100.16C109 100.16 109.9 101.06 109.9 102.18C109.9 103.3 109 104.2 107.88 104.2ZM134.2 88.04H132.44C132.5 88.36 132.54 89.06 132.54 89.44C132.54 90.26 132.46 93.52 132.46 95.82C132.46 98.04 132.56 100.82 132.56 101.98C132.56 102.64 132.3 102.96 131.84 102.96C131.06 102.96 129.66 102.16 129.66 101.26C129.66 100.24 131.2 98.9 133.16 98.14C134.86 97.46 136.5 97.08 138.3 97.08C140.18 97.08 141.72 97.98 141.72 99.68C141.72 101.54 140.12 102.48 138.38 102.82C137.62 102.98 136.78 102.96 136.02 102.96L136.58 104.56C137.28 104.52 138.18 104.48 139.06 104.28C141.82 103.64 143.34 102.1 143.34 99.68C143.34 97.28 141.24 95.7 138.3 95.7C136.72 95.7 134.72 96.06 132.94 96.76C130.46 97.7 128.08 99.56 128.08 101.32C128.08 103.12 130.68 104.64 132.24 104.64C133.34 104.64 134.02 104.04 134.02 102.2C134.02 100.94 133.92 97.82 133.92 95.74C133.92 93.66 134.02 90.6 134.08 89.42C134.1 88.94 134.14 88.4 134.2 88.04ZM140.42 90.26L139.68 91.46C140.96 92.14 143.2 93.52 144.18 94.44L144.98 93.16C144.02 92.36 141.84 91 140.42 90.26ZM128.42 91.62L128.46 93.16C129.12 93.22 129.88 93.26 131 93.26C132.8 93.26 136.08 92.82 138.14 92.32L138.1 90.76C136.12 91.36 132.94 91.78 130.96 91.78C130.24 91.78 129.52 91.76 128.42 91.62ZM153.14 92.58H162.84V94.64H153.14V92.58ZM153.14 95.9H162.84V97.98H153.14V95.9ZM153.14 89.26H162.84V91.3H153.14V89.26ZM151.68 87.92V99.34H164.36V87.92H151.68ZM159.28 98.36V103.34C159.28 105 159.78 105.46 161.68 105.46C162.08 105.46 164.5 105.46 164.92 105.46C166.62 105.46 167.06 104.72 167.24 101.8C166.82 101.7 166.16 101.46 165.84 101.18C165.76 103.68 165.62 104.02 164.8 104.02C164.26 104.02 162.24 104.02 161.82 104.02C160.96 104.02 160.8 103.92 160.8 103.34V98.36H159.28ZM154.46 98.78C154.12 101.7 153.18 103.42 148.78 104.3C149.08 104.62 149.5 105.24 149.64 105.62C154.46 104.52 155.66 102.34 156.08 98.78H154.46ZM174.08 88.86V105.56H175.54V88.86H174.08ZM171 92.76V94.18H177.82V92.76H171ZM174.18 93.38C173.48 95.86 171.9 98.98 170.48 100.58C170.72 100.92 171.08 101.54 171.24 101.96C172.76 100.1 174.32 96.6 175.12 93.78L174.18 93.38ZM177.04 87.5C175.62 88.12 173.06 88.66 170.88 88.98C171.06 89.32 171.28 89.84 171.34 90.14C173.58 89.88 176.28 89.36 178.08 88.66L177.04 87.5ZM175.4 95.3L174.7 95.92C175.32 96.6 176.82 98.52 177.3 99.32L178.2 98.14C177.78 97.66 175.92 95.74 175.4 95.3ZM182.62 87.22V93.28H184.1V87.22H182.62ZM178.32 88.32V89.34H188.68V88.32H178.32ZM178.78 90.36V91.36H188.16V90.36H178.78ZM177.72 92.42V93.46H189.18V92.42H177.72ZM180.42 97.76H186.62V99.08H180.42V97.76ZM180.42 100.04H186.62V101.36H180.42V100.04ZM180.42 95.52H186.62V96.78H180.42V95.52ZM179.06 94.48V102.4H188.04V94.48H179.06ZM184.48 103.3C185.78 104.06 187.2 105.02 188.02 105.64L189.34 104.9C188.42 104.24 186.86 103.32 185.52 102.56L184.48 103.3ZM181.32 102.5C180.38 103.3 178.46 104.22 176.82 104.72C177.12 104.96 177.58 105.4 177.8 105.7C179.44 105.18 181.38 104.22 182.58 103.26L181.32 102.5ZM198.76 88.22L197.02 88.16C196.98 88.72 196.94 89.28 196.86 89.88C196.62 91.52 196.24 94.46 196.24 96.36C196.24 97.66 196.34 98.78 196.44 99.54L198 99.42C197.86 98.42 197.86 97.72 197.96 96.96C198.2 94.34 200.52 90.7 203.02 90.7C205.12 90.7 206.18 92.98 206.18 96.14C206.18 101.16 202.8 102.92 198.44 103.58L199.4 105.02C204.34 104.12 207.84 101.66 207.84 96.12C207.84 91.92 205.92 89.24 203.28 89.24C200.74 89.24 198.66 91.74 197.84 93.8C197.96 92.4 198.34 89.7 198.76 88.22ZM221.96 92.18L221.98 93.7C223.14 93.78 224.18 93.82 225.34 93.82C227.68 93.82 230.12 93.66 232.24 93.3V91.76C230.22 92.18 227.76 92.36 225.36 92.36C224.18 92.36 223.1 92.3 221.96 92.18ZM228.96 88.6H227.16C227.22 88.96 227.24 89.48 227.24 89.84C227.24 90.54 227.26 91.8 227.26 93.18C227.26 95.82 227.52 99.56 227.52 101C227.52 102.34 227.04 103.18 225.36 103.18C223.9 103.18 222.92 102.64 222.92 101.6C222.92 100.64 223.96 99.98 225.46 99.98C228 99.98 230.02 101.34 232.12 103.3L232.98 101.98C231.3 100.46 228.96 98.76 225.6 98.76C222.96 98.76 221.48 100.08 221.48 101.76C221.48 103.56 222.94 104.64 225.62 104.64C228.32 104.64 229.08 103.04 229.08 101.4C229.08 99.34 228.78 96.22 228.78 93.14C228.78 91.96 228.8 90.54 228.84 89.8C228.86 89.42 228.9 89 228.96 88.6ZM219.1 88.74L217.34 88.58C217.32 89.02 217.28 89.54 217.2 90.02C216.96 91.66 216.28 95.48 216.28 98.42C216.28 101.12 216.66 103.32 217.04 104.76L218.46 104.64C218.44 104.44 218.42 104.14 218.4 103.94C218.38 103.72 218.42 103.32 218.48 103.04C218.68 102.06 219.42 100.02 219.92 98.62L219.1 97.98C218.76 98.8 218.26 100.02 217.94 100.94C217.8 99.96 217.74 99.12 217.74 98.14C217.74 95.9 218.34 91.94 218.74 90.08C218.82 89.72 218.98 89.06 219.1 88.74ZM241.1 87.2C240.16 89.22 238.52 91.18 236.82 92.44C237.18 92.68 237.78 93.16 238.06 93.44C239.74 92.04 241.46 89.88 242.56 87.62L241.1 87.2ZM240.4 89.5L239.9 90.86H254.18V89.5H240.4ZM237.06 94.24V95.6H254.94V94.24H237.06ZM237.38 99.02V100.38H254.66V99.02H237.38ZM243.44 89.96V99.68H244.74V89.96H243.44ZM239.86 89.96V99.74H241.22V89.96H239.86ZM247.06 89.96V99.74H248.34V89.96H247.06ZM250.72 89.96V99.74H252.1V89.96H250.72ZM242.9 101.74C243.14 102.94 243.3 104.5 243.3 105.44L244.78 105.22C244.76 104.3 244.54 102.78 244.28 101.6L242.9 101.74ZM246.98 101.74C247.5 102.94 248 104.5 248.18 105.46L249.66 105.14C249.46 104.2 248.92 102.64 248.38 101.5L246.98 101.74ZM251.06 101.62C252.06 102.86 253.2 104.58 253.68 105.64L255.18 105.1C254.64 104.02 253.46 102.34 252.46 101.14L251.06 101.62ZM239.4 101.22C238.9 102.68 237.96 104.2 236.92 105.04L238.34 105.64C239.4 104.68 240.32 103.08 240.84 101.58L239.4 101.22ZM262.16 87.28V105.58H263.56V87.28H262.16ZM258.94 93.92V95.34H266.84V93.92H258.94ZM261.94 94.66C261.3 97 259.9 100.04 258.62 101.58C258.86 101.98 259.22 102.62 259.38 103.06C260.72 101.24 262.14 97.78 262.84 95.06L261.94 94.66ZM263.52 95.6L262.78 96.22C263.44 97.08 265.08 99.7 265.58 100.78L266.58 99.58C266.12 98.92 264.08 96.2 263.52 95.6ZM259.08 88.76C259.6 90.16 260.06 92.02 260.16 93.22L261.34 92.9C261.2 91.7 260.74 89.88 260.18 88.48L259.08 88.76ZM265.54 88.4C265.26 89.76 264.66 91.76 264.22 92.96L265.18 93.26C265.72 92.14 266.34 90.26 266.86 88.74L265.54 88.4ZM273.3 87.22V105.6H274.72V87.22H273.3ZM266.8 99.94L267.04 101.34L277.32 99.48L277.08 98.1L266.8 99.94ZM268.3 89.66C269.46 90.38 270.84 91.46 271.48 92.24L272.28 91.08C271.62 90.34 270.24 89.32 269.08 88.64L268.3 89.66ZM267.28 94.7C268.48 95.36 269.92 96.38 270.62 97.1L271.38 95.92C270.66 95.2 269.18 94.26 267.98 93.64L267.28 94.7ZM281.56 90.84L281.74 92.6C283.9 92.14 289 91.64 291.14 91.42C289.32 92.5 287.42 95.06 287.42 98.16C287.42 102.64 291.62 104.6 295.32 104.74L295.9 103.1C292.66 102.98 289 101.72 289 97.82C289 95.46 290.74 92.4 293.6 91.48C294.62 91.2 296.36 91.16 297.52 91.18L297.5 89.58C296.16 89.62 294.3 89.74 292.1 89.92C288.42 90.24 284.64 90.6 283.36 90.74C282.96 90.78 282.32 90.82 281.56 90.84ZM294.62 93.62L293.62 94.06C294.22 94.9 294.78 95.92 295.24 96.88L296.28 96.42C295.84 95.52 295.08 94.28 294.62 93.62ZM296.8 92.78L295.82 93.24C296.44 94.08 297.04 95.08 297.52 96.04L298.54 95.54C298.08 94.66 297.3 93.44 296.8 92.78ZM311.14 91.68V103.78C311.14 104.12 311.02 104.22 310.64 104.24C310.26 104.26 308.98 104.28 307.58 104.22C307.8 104.64 308.06 105.24 308.14 105.66C309.88 105.66 311.04 105.64 311.72 105.4C312.4 105.16 312.64 104.74 312.64 103.8V91.68H311.14ZM305.64 88.34V89.7H317.08V88.34H305.64ZM316.6 88.34V88.62C315.54 89.78 313.36 91.24 311.42 92.04C311.68 92.28 312.08 92.7 312.28 93C314.46 92.08 316.82 90.54 318.34 89L317.3 88.26L316.98 88.34H316.6ZM308.64 94.04V95.28H315.4V94.04H308.64ZM303.16 92.64V94.02H307.64V92.64H303.16ZM308.24 97.22V98.46H315.72V97.22H308.24ZM307.1 100.5V101.76H316.88V100.5H307.1ZM319.9 92.48C319.04 93.72 317.54 95.42 316.46 96.4L317.42 97.24C318.52 96.26 319.98 94.74 321.08 93.46L319.9 92.48ZM316.72 92.02L315.34 92.24C316.12 97.3 317.56 101.62 320.3 103.94C320.56 103.52 321.08 102.96 321.44 102.66C318.84 100.7 317.4 96.58 316.72 92.02ZM307.1 92.64V92.98C306.46 97.38 304.78 100.92 302.54 102.82C302.88 103.04 303.44 103.6 303.68 103.92C305.98 101.84 307.84 97.98 308.62 92.94L307.68 92.58L307.4 92.64H307.1ZM327.2 96.02L327.88 97.68C329.16 97.16 333.54 95.34 336 95.34C338.06 95.34 339.4 96.6 339.4 98.3C339.4 101.56 335.6 102.8 331.26 102.92L331.92 104.46C337.3 104.14 341.02 102.18 341.02 98.32C341.02 95.6 338.96 93.9 336.12 93.9C333.78 93.9 330.48 95.1 329.06 95.54C328.44 95.74 327.78 95.92 327.2 96.02ZM346.684 90.72L346.864 92.48C349.044 92.02 354.124 91.52 356.284 91.3C354.444 92.38 352.544 94.92 352.544 98.04C352.544 102.52 356.744 104.48 360.464 104.62L361.024 102.98C357.784 102.84 354.124 101.6 354.124 97.7C354.124 95.34 355.864 92.28 358.724 91.36C359.744 91.08 361.484 91.04 362.644 91.06L362.624 89.46C361.284 89.5 359.424 89.62 357.244 89.8C353.544 90.12 349.784 90.48 348.484 90.62C348.084 90.66 347.444 90.7 346.684 90.72ZM374.598 88.04H372.838C372.898 88.36 372.938 89.06 372.938 89.44C372.938 90.26 372.858 93.52 372.858 95.82C372.858 98.04 372.958 100.82 372.958 101.98C372.958 102.64 372.698 102.96 372.238 102.96C371.458 102.96 370.058 102.16 370.058 101.26C370.058 100.24 371.598 98.9 373.558 98.14C375.258 97.46 376.898 97.08 378.698 97.08C380.578 97.08 382.118 97.98 382.118 99.68C382.118 101.54 380.518 102.48 378.778 102.82C378.018 102.98 377.178 102.96 376.418 102.96L376.978 104.56C377.678 104.52 378.578 104.48 379.458 104.28C382.218 103.64 383.738 102.1 383.738 99.68C383.738 97.28 381.638 95.7 378.698 95.7C377.118 95.7 375.118 96.06 373.338 96.76C370.858 97.7 368.478 99.56 368.478 101.32C368.478 103.12 371.078 104.64 372.638 104.64C373.738 104.64 374.418 104.04 374.418 102.2C374.418 100.94 374.318 97.82 374.318 95.74C374.318 93.66 374.418 90.6 374.478 89.42C374.498 88.94 374.538 88.4 374.598 88.04ZM380.818 90.26L380.078 91.46C381.358 92.14 383.598 93.52 384.578 94.44L385.378 93.16C384.418 92.36 382.238 91 380.818 90.26ZM368.818 91.62L368.858 93.16C369.518 93.22 370.278 93.26 371.398 93.26C373.198 93.26 376.478 92.82 378.538 92.32L378.498 90.76C376.518 91.36 373.338 91.78 371.358 91.78C370.638 91.78 369.918 91.76 368.818 91.62ZM395.158 88.22L393.418 88.16C393.378 88.72 393.338 89.28 393.258 89.88C393.018 91.52 392.638 94.46 392.638 96.36C392.638 97.66 392.738 98.78 392.838 99.54L394.398 99.42C394.258 98.42 394.258 97.72 394.358 96.96C394.598 94.34 396.918 90.7 399.418 90.7C401.518 90.7 402.578 92.98 402.578 96.14C402.578 101.16 399.198 102.92 394.838 103.58L395.798 105.02C400.738 104.12 404.238 101.66 404.238 96.12C404.238 91.92 402.318 89.24 399.678 89.24C397.138 89.24 395.058 91.74 394.238 93.8C394.358 92.4 394.738 89.7 395.158 88.22ZM421.838 88.14H420.138C420.198 88.4 420.218 89 420.218 89.34C420.218 90.74 420.218 92.84 420.218 94.64C420.218 96.4 420.418 100.24 420.418 101.78C420.418 103.18 419.438 103.52 418.278 103.52C416.298 103.52 415.518 102.84 415.518 101.9C415.518 100.98 416.538 100.24 418.458 100.24C422.018 100.24 424.978 102.24 426.778 103.9L427.698 102.48C426.158 101.22 422.858 98.94 418.638 98.94C415.758 98.94 414.018 100.16 414.018 101.98C414.018 103.92 415.598 104.94 418.478 104.94C421.078 104.94 421.998 103.52 421.998 102.12C421.998 100.78 421.698 97.28 421.698 94.64C421.698 92.96 421.698 90.28 421.738 89.48C421.758 88.88 421.798 88.48 421.838 88.14ZM414.198 90.3L414.218 91.78C415.478 91.94 417.938 92.12 419.318 92.12C421.998 92.12 424.858 91.86 427.118 91.6V90.14C424.518 90.56 421.838 90.74 419.298 90.74C417.978 90.74 415.478 90.54 414.198 90.3ZM414.098 94.56L414.118 96.06C415.538 96.22 417.738 96.32 419.118 96.32C422.118 96.32 424.558 96.18 427.278 95.84V94.34C424.678 94.72 422.018 94.92 419.118 94.92C417.798 94.92 415.518 94.78 414.098 94.56ZM444.938 88.16H443.098C443.138 88.34 443.198 88.9 443.238 89.44C443.298 90.54 443.318 94.52 443.318 95.4L444.838 96.18C444.818 94.58 444.778 90.72 444.838 89.42C444.838 89.18 444.898 88.4 444.938 88.16ZM434.298 90.96L434.338 92.5C437.358 92.28 441.638 92.14 445.078 92.14C448.018 92.14 449.818 92.18 450.938 92.24L450.958 90.76C450.018 90.74 447.538 90.74 445.098 90.74C442.018 90.74 437.018 90.92 434.298 90.96ZM444.798 96.76L443.698 96.2C444.018 98.34 443.218 99.38 441.978 99.38C440.878 99.38 439.938 98.66 439.938 97.4C439.938 96.1 440.918 95.28 441.978 95.28C443.058 95.28 443.938 96.04 443.938 97.84C443.938 101.14 441.818 102.92 438.178 103.78L439.518 105.08C444.158 103.7 445.478 100.7 445.478 97.98C445.478 95.68 444.298 93.96 441.978 93.96C440.078 93.96 438.438 95.44 438.438 97.42C438.438 99.6 440.058 100.78 441.738 100.78C443.558 100.78 444.798 99.44 444.798 96.76ZM456.286 99.14C454.606 99.14 453.226 100.5 453.226 102.18C453.226 103.86 454.606 105.22 456.286 105.22C457.966 105.22 459.326 103.86 459.326 102.18C459.326 100.5 457.966 99.14 456.286 99.14ZM456.286 104.2C455.166 104.2 454.246 103.3 454.246 102.18C454.246 101.06 455.166 100.16 456.286 100.16C457.406 100.16 458.306 101.06 458.306 102.18C458.306 103.3 457.406 104.2 456.286 104.2ZM485.626 88.32H483.766C483.826 88.62 483.906 89.32 483.906 89.74C483.906 90.8 483.906 92.78 483.906 93.46C483.906 94.42 483.906 101.24 483.906 102.34C483.886 102.86 483.666 103.1 483.126 103.1C482.586 103.1 481.686 103.02 480.806 102.86L480.946 104.46C481.766 104.54 482.946 104.6 483.806 104.6C485.006 104.6 485.506 104.06 485.506 103C485.506 101.58 485.506 95.1 485.506 93.46C485.506 92.5 485.506 90.82 485.506 89.76C485.506 89.32 485.586 88.6 485.626 88.32ZM476.646 91.7V93.38C477.166 93.34 477.746 93.32 478.346 93.32C479.566 93.32 489.626 93.32 490.826 93.32C491.306 93.32 491.906 93.32 492.426 93.36V91.7C491.946 91.78 491.266 91.8 490.806 91.8C489.626 91.8 479.526 91.8 478.346 91.8C477.706 91.8 477.206 91.76 476.646 91.7ZM481.246 96.4L479.846 95.72C479.066 97.34 477.346 99.72 476.026 100.96L477.386 101.9C478.526 100.66 480.386 98.12 481.246 96.4ZM489.606 95.74L488.246 96.46C489.286 97.72 490.786 100.22 491.586 101.78L493.066 100.96C492.266 99.52 490.666 97.02 489.606 95.74ZM498.426 95.34V97.3C499.066 97.26 500.126 97.22 501.226 97.22C502.706 97.22 510.686 97.22 512.206 97.22C513.086 97.22 513.926 97.28 514.346 97.3V95.34C513.886 95.38 513.186 95.46 512.186 95.46C510.706 95.46 502.686 95.46 501.226 95.46C500.086 95.46 499.046 95.4 498.426 95.34ZM528.241 89.1L526.241 88.68C526.181 89.22 526.101 89.68 525.841 90.6C525.241 92.72 522.921 99.96 521.921 102.26L523.721 102.2C524.581 100.18 526.901 93 527.541 90.96C527.821 90.1 528.041 89.58 528.241 89.1ZM532.041 95.8L530.521 96.46C531.961 98.36 534.001 102.52 534.801 104.68L536.461 103.94C535.641 101.88 533.441 97.84 532.041 95.8ZM521.141 101.78C520.561 101.82 519.861 101.84 519.261 101.82L519.581 103.66C520.141 103.58 520.741 103.5 521.241 103.46C524.061 103.18 531.421 102.38 534.201 102.02L533.761 100.46C531.181 100.84 524.021 101.64 521.141 101.78ZM553.881 92C553.881 91.2 554.541 90.54 555.341 90.54C556.161 90.54 556.801 91.2 556.801 92C556.801 92.82 556.161 93.48 555.341 93.48C554.541 93.48 553.881 92.82 553.881 92ZM552.921 92C552.921 93.34 554.001 94.44 555.341 94.44C556.681 94.44 557.781 93.34 557.781 92C557.781 90.66 556.681 89.58 555.341 89.58C554.001 89.58 552.921 90.66 552.921 92ZM540.861 98.74L542.341 100.26C542.661 99.86 543.081 99.24 543.501 98.72C544.401 97.62 546.081 95.42 547.041 94.26C547.721 93.42 548.101 93.36 548.881 94.1C549.721 94.94 551.561 96.92 552.721 98.22C554.021 99.68 555.781 101.74 557.201 103.46L558.581 102C557.041 100.34 555.041 98.18 553.681 96.74C552.521 95.5 550.801 93.7 549.581 92.56C548.221 91.26 547.281 91.48 546.221 92.74C544.961 94.24 543.221 96.46 542.261 97.42C541.741 97.94 541.361 98.3 540.861 98.74ZM563.821 95.34V97.3C564.461 97.26 565.521 97.22 566.621 97.22C568.101 97.22 576.081 97.22 577.601 97.22C578.481 97.22 579.321 97.28 579.741 97.3V95.34C579.281 95.38 578.581 95.46 577.581 95.46C576.101 95.46 568.081 95.46 566.621 95.46C565.481 95.46 564.441 95.4 563.821 95.34ZM597.73 89.08L596.61 89.56C597.27 90.46 597.95 91.66 598.45 92.72L599.59 92.2C599.13 91.24 598.23 89.82 597.73 89.08ZM600.33 88.12L599.23 88.62C599.89 89.5 600.59 90.66 601.11 91.7L602.25 91.18C601.77 90.26 600.87 88.82 600.33 88.12ZM589.17 88.78L588.27 90.14C589.45 90.8 591.63 92.26 592.57 92.98L593.53 91.62C592.65 90.98 590.35 89.44 589.17 88.78ZM586.17 103.08L587.11 104.72C588.95 104.34 591.71 103.4 593.73 102.22C596.93 100.36 599.69 97.76 601.43 95.08L600.45 93.44C598.83 96.26 596.21 98.86 592.89 100.76C590.85 101.92 588.37 102.7 586.17 103.08ZM586.17 93.28L585.27 94.66C586.49 95.28 588.65 96.68 589.63 97.38L590.55 95.98C589.69 95.36 587.35 93.92 586.17 93.28ZM616.23 88.3H614.33C614.41 88.68 614.47 89.56 614.49 90.3C614.49 91.16 614.51 92.8 614.51 93.96C614.51 96 614.75 99.88 614.75 101.36C614.75 102.74 614.03 103.44 612.57 103.44C610.63 103.44 609.51 102.82 609.51 101.72C609.51 100.6 610.69 99.9 612.77 99.9C616.27 99.9 619.55 101.86 621.55 103.86L622.51 102.36C620.47 100.5 616.91 98.5 612.95 98.5C609.49 98.5 607.93 99.96 607.93 101.78C607.93 104.06 609.95 104.92 612.73 104.92C615.39 104.92 616.39 103.52 616.39 101.9C616.39 100.14 616.07 96.14 616.07 93.96C616.07 92.58 616.07 91.2 616.07 90.3C616.09 89.7 616.15 88.74 616.23 88.3ZM615.19 92.34V93.82C616.63 93.82 619.89 93.68 622.05 93.48L621.99 91.98C619.83 92.24 616.57 92.34 615.19 92.34ZM633.78 88.22L632.04 88.16C632 88.72 631.96 89.28 631.88 89.88C631.64 91.52 631.26 94.46 631.26 96.36C631.26 97.66 631.36 98.78 631.46 99.54L633.02 99.42C632.88 98.42 632.88 97.72 632.98 96.96C633.22 94.34 635.54 90.7 638.04 90.7C640.14 90.7 641.2 92.98 641.2 96.14C641.2 101.16 637.82 102.92 633.46 103.58L634.42 105.02C639.36 104.12 642.86 101.66 642.86 96.12C642.86 91.92 640.94 89.24 638.3 89.24C635.76 89.24 633.68 91.74 632.86 93.8C632.98 92.4 633.36 89.7 633.78 88.22ZM657.22 88.04H655.46C655.52 88.36 655.56 89.06 655.56 89.44C655.56 90.26 655.48 93.52 655.48 95.82C655.48 98.04 655.58 100.82 655.58 101.98C655.58 102.64 655.32 102.96 654.86 102.96C654.08 102.96 652.68 102.16 652.68 101.26C652.68 100.24 654.22 98.9 656.18 98.14C657.88 97.46 659.52 97.08 661.32 97.08C663.2 97.08 664.74 97.98 664.74 99.68C664.74 101.54 663.14 102.48 661.4 102.82C660.64 102.98 659.8 102.96 659.04 102.96L659.6 104.56C660.3 104.52 661.2 104.48 662.08 104.28C664.84 103.64 666.36 102.1 666.36 99.68C666.36 97.28 664.26 95.7 661.32 95.7C659.74 95.7 657.74 96.06 655.96 96.76C653.48 97.7 651.1 99.56 651.1 101.32C651.1 103.12 653.7 104.64 655.26 104.64C656.36 104.64 657.04 104.04 657.04 102.2C657.04 100.94 656.94 97.82 656.94 95.74C656.94 93.66 657.04 90.6 657.1 89.42C657.12 88.94 657.16 88.4 657.22 88.04ZM663.44 90.26L662.7 91.46C663.98 92.14 666.22 93.52 667.2 94.44L668 93.16C667.04 92.36 664.86 91 663.44 90.26ZM651.44 91.62L651.48 93.16C652.14 93.22 652.9 93.26 654.02 93.26C655.82 93.26 659.1 92.82 661.16 92.32L661.12 90.76C659.14 91.36 655.96 91.78 653.98 91.78C653.26 91.78 652.54 91.76 651.44 91.62ZM675.82 89.32V90.62H689.54V89.32H675.82ZM676.04 92.2V93.46H687.62V92.2H676.04ZM673.74 95.06V96.36H685.8V95.06H673.74ZM676.08 87.16C675.26 89.98 673.72 92.56 671.76 94.18C672.16 94.4 672.84 94.88 673.14 95.14C675.04 93.36 676.68 90.6 677.66 87.52L676.08 87.16ZM681.46 96.7C679.54 100.18 676.14 102.98 672.3 104.62C672.64 104.88 673.2 105.46 673.42 105.78C677.22 103.92 680.74 101 682.9 97.18L681.46 96.7ZM685.24 95.06C685.32 101.26 685.64 105.6 688.5 105.62C689.72 105.6 690.04 104.7 690.18 102.18C689.86 101.98 689.42 101.62 689.12 101.3C689.08 103 689 104.14 688.6 104.14C687.08 104.14 686.78 100.24 686.78 95.06H685.24ZM674.24 98.5C677.34 100.24 681.04 102.94 682.74 104.88L683.94 103.76C682.12 101.8 678.38 99.18 675.3 97.52L674.24 98.5ZM703.12 98.98V100.28H711.4V98.98H703.12ZM701.88 103.76V105.1H712.3V103.76H701.88ZM702.78 88.2V89.54H710.5V88.2H702.78ZM706.5 96.38V104.56H707.98V96.38H706.5ZM710.08 88.2V88.48C708.92 92.38 705.56 95.02 701.96 96.06C702.26 96.38 702.62 96.92 702.78 97.3C706.7 95.98 710.16 93.22 711.58 88.54L710.64 88.14L710.36 88.2H710.08ZM704.92 89.5L703.66 89.86C705.1 93.46 707.86 96.08 711.6 97.24C711.8 96.84 712.22 96.3 712.54 96C708.92 95.06 706.2 92.64 704.92 89.5ZM694.04 89.36V90.7H702.36V89.36H694.04ZM693.8 100.78V102.12H702.52V100.78H693.8ZM697.5 87.2V92.7H698.86V87.2H697.5ZM697.64 92.76V98.58H697.5V105.64H698.86V98.58H698.74V92.76H697.64ZM695.52 96.2H700.88V98.06H695.52V96.2ZM695.52 93.32H700.88V95.14H695.52V93.32ZM694.38 92.2V99.16H702.06V92.2H694.38ZM724.12 90.5L724.14 92.12C726.32 92.36 730.2 92.36 732.34 92.12V90.5C730.36 90.8 726.3 90.88 724.12 90.5ZM724.9 98.66L723.46 98.52C723.24 99.48 723.14 100.2 723.14 100.86C723.14 102.74 724.64 103.86 727.98 103.86C730.06 103.86 731.74 103.7 732.98 103.44L732.94 101.76C731.34 102.14 729.78 102.3 728 102.3C725.26 102.3 724.62 101.4 724.62 100.48C724.62 99.94 724.72 99.38 724.9 98.66ZM720.32 88.96L718.54 88.82C718.52 89.26 718.46 89.76 718.4 90.22C718.16 91.88 717.5 95.3 717.5 98.24C717.5 100.96 717.84 103.26 718.24 104.68L719.66 104.58C719.64 104.36 719.62 104.08 719.6 103.88C719.6 103.64 719.64 103.26 719.7 102.98C719.88 102.02 720.62 99.92 721.12 98.5L720.28 97.84C719.94 98.66 719.48 99.86 719.14 100.76C719.02 99.78 718.96 98.94 718.96 97.98C718.96 95.72 719.58 92.16 719.96 90.3C720.04 89.94 720.2 89.3 720.32 88.96ZM745.22 88.04H743.46C743.52 88.36 743.56 89.06 743.56 89.44C743.56 90.26 743.48 93.52 743.48 95.82C743.48 98.04 743.58 100.82 743.58 101.98C743.58 102.64 743.32 102.96 742.86 102.96C742.08 102.96 740.68 102.16 740.68 101.26C740.68 100.24 742.22 98.9 744.18 98.14C745.88 97.46 747.52 97.08 749.32 97.08C751.2 97.08 752.74 97.98 752.74 99.68C752.74 101.54 751.14 102.48 749.4 102.82C748.64 102.98 747.8 102.96 747.04 102.96L747.6 104.56C748.3 104.52 749.2 104.48 750.08 104.28C752.84 103.64 754.36 102.1 754.36 99.68C754.36 97.28 752.26 95.7 749.32 95.7C747.74 95.7 745.74 96.06 743.96 96.76C741.48 97.7 739.1 99.56 739.1 101.32C739.1 103.12 741.7 104.64 743.26 104.64C744.36 104.64 745.04 104.04 745.04 102.2C745.04 100.94 744.94 97.82 744.94 95.74C744.94 93.66 745.04 90.6 745.1 89.42C745.12 88.94 745.16 88.4 745.22 88.04ZM751.44 90.26L750.7 91.46C751.98 92.14 754.22 93.52 755.2 94.44L756 93.16C755.04 92.36 752.86 91 751.44 90.26ZM739.44 91.62L739.48 93.16C740.14 93.22 740.9 93.26 742.02 93.26C743.82 93.26 747.1 92.82 749.16 92.32L749.12 90.76C747.14 91.36 743.96 91.78 741.98 91.78C741.26 91.78 740.54 91.76 739.44 91.62ZM765.84 96.92V98.18H771.28V101.52H765.84V102.78H772.68V96.92H765.84ZM765.18 96.92V103.98H766.58V96.92H765.18ZM761.56 90.96V92.08H767.12V90.96H761.56ZM770.78 90.96V92.08H776.44V90.96H770.78ZM775.78 88.06V103.58C775.78 103.96 775.66 104.08 775.28 104.08C774.9 104.1 773.58 104.12 772.26 104.06C772.48 104.48 772.74 105.18 772.8 105.6C774.56 105.6 775.72 105.58 776.4 105.34C777.04 105.08 777.28 104.6 777.28 103.6V88.06H775.78ZM761.68 88.06V89.28H766.66V93.9H761.68V95.12H768.08V88.06H761.68ZM776.56 88.06H769.88V95.12H776.56V93.92H771.32V89.26H776.56V88.06ZM760.84 88.06V105.62H762.32V88.06H760.84ZM785.48 90.06L783.54 90.02C783.66 90.48 783.66 91.34 783.66 91.8C783.66 92.96 783.7 95.4 783.88 97.12C784.44 102.3 786.24 104.18 788.14 104.18C789.5 104.18 790.7 103.02 791.92 99.64L790.66 98.22C790.14 100.22 789.2 102.28 788.18 102.28C786.74 102.28 785.78 100.06 785.44 96.72C785.3 95.08 785.28 93.24 785.3 92C785.32 91.48 785.38 90.52 785.48 90.06ZM795.88 90.6L794.34 91.14C796.24 93.48 797.46 97.6 797.8 101.2L799.42 100.56C799.12 97.18 797.68 92.92 795.88 90.6ZM807.98 93.74V95.08H818.08V93.74H807.98ZM807.62 103.46V104.8H818.34V103.46H807.62ZM806.94 97.6V105.62H808.4V98.96H817.66V105.62H819.18V97.6H806.94ZM812.96 88.74C814.84 91.3 818.36 94.12 821.5 95.76C821.76 95.32 822.12 94.8 822.5 94.44C819.3 93.02 815.8 90.24 813.64 87.26H812.12C810.54 89.84 807.2 92.9 803.68 94.68C804.02 95 804.42 95.54 804.62 95.88C808.04 94.02 811.32 91.18 812.96 88.74ZM835.58 102.58L836.3 104.08C840.66 103.24 843.6 101.14 843.58 97.1C843.58 94 841.12 92.06 838.34 92.06C836.24 92.06 833.7 92.9 831.3 95.16V96.94C833.24 94.92 835.54 93.5 838.1 93.5C840.76 93.5 841.98 95.54 841.98 97.08C842 100.52 838.96 102.08 835.58 102.58ZM831.06 92.94L830.9 93.46L830.82 94.48C830.04 95.8 827.34 99.48 826.1 101.04L827.1 102.4C828.36 100.66 830.22 97.96 831.14 96.54L831.74 93.8C832.08 93.24 832.62 92.38 832.96 91.86L832.38 91.18C831.44 91.48 828.96 91.78 827.9 91.84C827.4 91.88 827.02 91.88 826.58 91.86L826.76 93.52C828.24 93.3 830.42 93.02 831.06 92.94ZM830.86 89.62C830.86 90.36 830.38 96.7 830.34 98.46C830.32 100.66 830.3 101.66 830.3 103.6C830.3 103.92 830.26 104.5 830.24 104.78H831.96C831.94 104.4 831.88 103.9 831.86 103.56C831.78 101.78 831.78 100.56 831.78 98.74C831.78 95.22 832.4 89.5 832.68 88.2L830.78 88.14C830.88 88.64 830.86 89.16 830.86 89.62ZM861.8 88.58H860.1C860.16 88.94 860.22 89.64 860.22 90.1C860.22 91.2 860.22 92.6 860.2 93.72C860.18 95.14 860.1 96.88 859.98 97.64C859.9 98.1 859.7 98.18 859.2 98.18C858.74 98.18 857.9 98.08 857.2 97.92L857.18 99.32C857.7 99.42 859.08 99.6 859.82 99.6C860.72 99.6 861.18 99.34 861.36 98.44C861.56 97.4 861.62 95.24 861.66 93.7C861.7 92.68 861.7 91.28 861.72 90.04C861.72 89.6 861.76 88.92 861.8 88.58ZM853.9 89.22H852.14C852.24 89.82 852.26 90.3 852.26 90.9C852.26 91.82 852.24 98.42 852.28 100.1C852.36 103.28 852.8 104.36 857.42 104.36C859.46 104.36 861.9 104.16 863.24 104.02L863.3 102.34C862 102.58 859.52 102.8 857.34 102.8C853.88 102.8 853.86 102.04 853.78 99.88C853.74 98.5 853.8 93 853.82 90.84C853.82 90.22 853.84 89.68 853.9 89.22ZM847.92 94L848.08 95.64C848.64 95.56 849.5 95.44 850.1 95.36C852.64 95.06 860.68 94.22 863.88 94.16C864.38 94.16 865.14 94.14 865.44 94.16V92.58C864.98 92.62 864.4 92.66 863.88 92.68C859.78 92.9 852.16 93.7 850 93.88C849.28 93.96 848.54 94 847.92 94ZM883.1 89.26L881.6 87.94C881.38 88.3 880.86 88.88 880.46 89.28C879.12 90.64 876.08 93.04 874.56 94.3C872.76 95.82 872.54 96.68 874.42 98.26C876.3 99.8 879.32 102.4 880.74 103.84C881.22 104.34 881.7 104.82 882.12 105.3L883.54 104C881.42 101.86 877.88 99.02 876.06 97.52C874.76 96.44 874.78 96.14 875.98 95.1C877.46 93.86 880.34 91.6 881.72 90.4C882.04 90.12 882.66 89.58 883.1 89.26ZM899.26 88.56L897.36 88.4C897.4 88.82 897.36 89.5 897.28 90.06C897.14 91.12 896.62 93.62 896.12 95.46C895.38 98.28 893.98 102.36 892.76 104.42L894.52 105C895.58 102.82 896.92 98.68 897.64 95.84C898.2 93.86 898.62 91.58 898.9 90.14C898.98 89.76 899.14 89 899.26 88.56ZM894.84 91.9C894.1 91.9 893.38 91.88 892.44 91.76L892.48 93.3C893.22 93.36 893.92 93.38 894.8 93.38C896.96 93.38 899.98 93.06 902.46 92.5V90.92C899.98 91.56 897.04 91.9 894.84 91.9ZM901.16 94.66V96.14C902.38 96 903.6 95.94 904.86 95.94C906.04 95.94 907.2 96.04 908.24 96.16L908.28 94.64C907.2 94.52 905.98 94.48 904.82 94.48C903.52 94.48 902.2 94.56 901.16 94.66ZM901.56 99.52L900.08 99.36C899.9 100.22 899.78 100.96 899.78 101.72C899.78 103.7 901.5 104.68 904.64 104.68C906.1 104.68 907.44 104.54 908.52 104.4L908.58 102.78C907.34 103.02 905.96 103.18 904.66 103.18C901.82 103.18 901.28 102.26 901.28 101.32C901.28 100.8 901.4 100.16 901.56 99.52ZM906.1 89.18L905.04 89.62C905.58 90.38 906.28 91.6 906.68 92.4L907.76 91.92C907.34 91.12 906.62 89.88 906.1 89.18ZM908.32 88.36L907.26 88.82C907.82 89.58 908.5 90.7 908.92 91.58L910 91.1C909.62 90.34 908.86 89.1 908.32 88.36ZM923.48 89.84C923.7 90.46 923.98 91.38 924.42 92.52C925.08 94.34 926.18 96.32 927.02 97.6C926.3 97.52 924.82 97.4 923.7 97.3L923.58 98.62C925.02 98.72 927.46 98.94 928.42 99.18L929.22 98.04C928.92 97.72 928.62 97.38 928.36 96.98C927.5 95.82 926.48 93.96 925.86 92.24C925.4 90.94 924.88 89.22 924.7 88.06L922.98 88.26C923.18 88.8 923.36 89.4 923.48 89.84ZM916.16 91.4L916.2 92.98C919.74 93.28 922.92 93.26 925.46 92.96C926.92 92.78 928.82 92.46 930.24 92.06L930.06 90.48C928.5 91.02 926.52 91.38 924.94 91.56C922.66 91.8 919.5 91.78 916.16 91.4ZM919.26 97.76L917.7 97.4C917.12 98.58 916.72 99.62 916.72 100.74C916.72 103.46 919.12 104.82 922.92 104.84C925.16 104.86 926.84 104.64 928.1 104.42L928.16 102.82C926.78 103.12 925.04 103.32 923.02 103.32C920.04 103.28 918.3 102.46 918.3 100.54C918.3 99.6 918.66 98.74 919.26 97.76ZM939.48 90.06L937.54 90.02C937.66 90.48 937.66 91.34 937.66 91.8C937.66 92.96 937.7 95.4 937.88 97.12C938.44 102.3 940.24 104.18 942.14 104.18C943.5 104.18 944.7 103.02 945.92 99.64L944.66 98.22C944.14 100.22 943.2 102.28 942.18 102.28C940.74 102.28 939.78 100.06 939.44 96.72C939.3 95.08 939.28 93.24 939.3 92C939.32 91.48 939.38 90.52 939.48 90.06ZM949.88 90.6L948.34 91.14C950.24 93.48 951.46 97.6 951.8 101.2L953.42 100.56C953.12 97.18 951.68 92.92 949.88 90.6ZM960.9 99.14C959.22 99.14 957.84 100.5 957.84 102.18C957.84 103.86 959.22 105.22 960.9 105.22C962.58 105.22 963.94 103.86 963.94 102.18C963.94 100.5 962.58 99.14 960.9 99.14ZM960.9 104.2C959.78 104.2 958.86 103.3 958.86 102.18C958.86 101.06 959.78 100.16 960.9 100.16C962.02 100.16 962.92 101.06 962.92 102.18C962.92 103.3 962.02 104.2 960.9 104.2Z" fill="#333333"/>
<rect y="68" width="52" height="52" rx="26" fill="#B71B26"/>
<path d="M9.442 103.64H17.126V102.552L13.454 102.076H12.808L9.442 102.552V103.64ZM11.788 103.64H13.488L20.356 81.8119L20.458 81.3359H19.744L26.918 103.64H31.848L23.212 78.3439H20.254L11.788 103.64ZM15.562 95.4459H26.816L26.578 94.3239H15.8L15.562 95.4459ZM22.974 103.64H34.024V102.518L29.298 102.042H27.564L22.974 102.518V103.64ZM40.0452 104.218C41.6092 104.218 42.8332 102.96 42.8332 101.464C42.8332 99.9339 41.6092 98.6759 40.0452 98.6759C38.4812 98.6759 37.2912 99.9339 37.2912 101.464C37.2912 102.96 38.4812 104.218 40.0452 104.218Z" fill="white"/>
<path d="M65.16 20.56V22.62H74.84V20.56H65.16ZM65.16 23.9V25.98H74.84V23.9H65.16ZM65.16 17.24V19.3H74.84V17.24H65.16ZM63.7 15.9H76.36V27.32H63.7V15.9ZM71.28 26.34H72.8V31.34C72.8 31.62 72.8667 31.8067 73 31.9C73.1333 31.98 73.4133 32.02 73.84 32.02C73.9333 32.02 74.1133 32.02 74.38 32.02C74.6467 32.02 74.94 32.02 75.26 32.02C75.5933 32.02 75.9 32.02 76.18 32.02C76.4733 32.02 76.6867 32.02 76.82 32.02C77.1 32.02 77.3067 31.9533 77.44 31.82C77.5733 31.6867 77.6667 31.42 77.72 31.02C77.7867 30.62 77.8333 30.0067 77.86 29.18C77.9667 29.26 78.1 29.3467 78.26 29.44C78.42 29.52 78.5867 29.5933 78.76 29.66C78.9467 29.7133 79.1067 29.76 79.24 29.8C79.1867 30.76 79.0867 31.5067 78.94 32.04C78.7933 32.5733 78.56 32.94 78.24 33.14C77.9333 33.34 77.5 33.44 76.94 33.44C76.86 33.44 76.7067 33.44 76.48 33.44C76.2667 33.44 76.0133 33.44 75.72 33.44C75.44 33.44 75.1533 33.44 74.86 33.44C74.58 33.44 74.3333 33.44 74.12 33.44C73.92 33.44 73.78 33.44 73.7 33.44C73.06 33.44 72.56 33.38 72.2 33.26C71.8533 33.14 71.6133 32.92 71.48 32.6C71.3467 32.2933 71.28 31.8733 71.28 31.34V26.34ZM66.48 26.78H68.08C67.9733 27.66 67.8 28.46 67.56 29.18C67.3333 29.9 66.9867 30.5467 66.52 31.12C66.0533 31.68 65.4267 32.1667 64.64 32.58C63.8533 32.9933 62.8533 33.34 61.64 33.62C61.6 33.4867 61.5333 33.3333 61.44 33.16C61.3467 33 61.24 32.84 61.12 32.68C61 32.5333 60.8867 32.4067 60.78 32.3C61.8867 32.0733 62.7867 31.7933 63.48 31.46C64.1867 31.1267 64.74 30.74 65.14 30.3C65.5533 29.8467 65.8533 29.3267 66.04 28.74C66.24 28.1533 66.3867 27.5 66.48 26.78ZM86.1 16.86H87.56V33.56H86.1V16.86ZM83 20.76H89.82V22.16H83V20.76ZM86.2 21.38L87.14 21.76C86.94 22.4667 86.6933 23.2 86.4 23.96C86.12 24.72 85.8067 25.4733 85.46 26.22C85.1267 26.9533 84.7667 27.6467 84.38 28.3C84.0067 28.94 83.6333 29.4867 83.26 29.94C83.1667 29.74 83.0467 29.5067 82.9 29.24C82.7533 28.9733 82.6133 28.7467 82.48 28.56C82.84 28.16 83.2 27.68 83.56 27.12C83.92 26.56 84.2667 25.9533 84.6 25.3C84.9467 24.6467 85.2533 23.9867 85.52 23.32C85.7867 22.64 86.0133 21.9933 86.2 21.38ZM89.04 15.48L90.08 16.64C89.4933 16.88 88.82 17.1 88.06 17.3C87.3 17.4867 86.5133 17.6533 85.7 17.8C84.8867 17.9333 84.1 18.0467 83.34 18.14C83.3133 17.98 83.2533 17.7867 83.16 17.56C83.0667 17.3333 82.98 17.14 82.9 16.98C83.62 16.86 84.36 16.7267 85.12 16.58C85.8933 16.4333 86.62 16.2667 87.3 16.08C87.9933 15.8933 88.5733 15.6933 89.04 15.48ZM87.42 23.3C87.54 23.4067 87.7267 23.5933 87.98 23.86C88.2467 24.1133 88.5333 24.3933 88.84 24.7C89.1467 25.0067 89.4267 25.2933 89.68 25.56C89.9333 25.8267 90.1067 26.02 90.2 26.14L89.3 27.32C89.18 27.12 89.0067 26.8667 88.78 26.56C88.5667 26.24 88.3267 25.9133 88.06 25.58C87.7933 25.2333 87.54 24.9133 87.3 24.62C87.0733 24.3133 86.88 24.0733 86.72 23.9L87.42 23.3ZM94.64 15.2H96.12V21.28H94.64V15.2ZM90.34 16.3H100.7V17.34H90.34V16.3ZM90.8 18.36H100.18V19.34H90.8V18.36ZM89.74 20.4H101.18V21.46H89.74V20.4ZM92.44 25.76V27.06H98.62V25.76H92.44ZM92.44 28.04V29.36H98.62V28.04H92.44ZM92.44 23.5V24.78H98.62V23.5H92.44ZM91.06 22.46H100.04V30.4H91.06V22.46ZM96.5 31.3L97.52 30.54C97.9733 30.7933 98.4333 31.06 98.9 31.34C99.3667 31.62 99.8133 31.8933 100.24 32.16C100.68 32.4267 101.053 32.6667 101.36 32.88L100.04 33.62C99.76 33.42 99.4267 33.1867 99.04 32.92C98.6533 32.6533 98.24 32.3733 97.8 32.08C97.36 31.8 96.9267 31.54 96.5 31.3ZM93.32 30.48L94.6 31.24C94.2 31.56 93.7267 31.8733 93.18 32.18C92.6467 32.5 92.0867 32.7867 91.5 33.04C90.9267 33.2933 90.3667 33.5067 89.82 33.68C89.7 33.5333 89.54 33.3667 89.34 33.18C89.1533 32.9933 88.9867 32.8333 88.84 32.7C89.3867 32.54 89.9467 32.3333 90.52 32.08C91.0933 31.84 91.6267 31.5867 92.12 31.32C92.6133 31.04 93.0133 30.76 93.32 30.48ZM110.78 16.22C110.673 16.5933 110.567 17.0267 110.46 17.52C110.367 18 110.273 18.5067 110.18 19.04C110.1 19.56 110.027 20.06 109.96 20.54C109.907 21.02 109.867 21.4333 109.84 21.78C110.053 21.2733 110.333 20.7533 110.68 20.22C111.027 19.6867 111.44 19.2 111.92 18.76C112.4 18.3067 112.92 17.94 113.48 17.66C114.053 17.38 114.653 17.24 115.28 17.24C116.173 17.24 116.96 17.52 117.64 18.08C118.333 18.64 118.873 19.4333 119.26 20.46C119.647 21.4867 119.84 22.7 119.84 24.1C119.84 25.4867 119.633 26.6933 119.22 27.72C118.807 28.7333 118.227 29.5933 117.48 30.3C116.733 31.0067 115.84 31.58 114.8 32.02C113.773 32.46 112.64 32.7867 111.4 33L110.46 31.56C111.54 31.4 112.547 31.16 113.48 30.84C114.427 30.5067 115.253 30.06 115.96 29.5C116.667 28.9267 117.213 28.2 117.6 27.32C118 26.44 118.2 25.3733 118.2 24.12C118.2 23.0667 118.08 22.1333 117.84 21.32C117.6 20.4933 117.247 19.8467 116.78 19.38C116.313 18.9133 115.727 18.68 115.02 18.68C114.393 18.68 113.793 18.88 113.22 19.28C112.647 19.68 112.12 20.2 111.64 20.84C111.173 21.4667 110.793 22.1467 110.5 22.88C110.207 23.6 110.027 24.2867 109.96 24.94C109.907 25.3267 109.88 25.7067 109.88 26.08C109.893 26.4533 109.933 26.8933 110 27.4L108.46 27.52C108.407 27.1467 108.353 26.6867 108.3 26.14C108.26 25.5933 108.24 24.9933 108.24 24.34C108.24 23.8733 108.26 23.3533 108.3 22.78C108.353 22.1933 108.407 21.6067 108.46 21.02C108.527 20.42 108.593 19.8467 108.66 19.3C108.74 18.7533 108.807 18.28 108.86 17.88C108.9 17.5733 108.933 17.28 108.96 17C108.987 16.7067 109.007 16.4267 109.02 16.16L110.78 16.22ZM133.98 20.18C134.553 20.2333 135.113 20.2733 135.66 20.3C136.207 20.3267 136.78 20.34 137.38 20.34C138.58 20.34 139.773 20.2933 140.96 20.2C142.147 20.1067 143.247 19.96 144.26 19.76V21.3C143.193 21.4733 142.067 21.6 140.88 21.68C139.707 21.76 138.527 21.8067 137.34 21.82C136.767 21.82 136.207 21.8067 135.66 21.78C135.127 21.7533 134.567 21.72 133.98 21.68V20.18ZM140.98 16.6C140.953 16.8 140.927 17 140.9 17.2C140.887 17.4 140.873 17.6 140.86 17.8C140.847 18.04 140.833 18.3467 140.82 18.72C140.807 19.0933 140.8 19.4933 140.8 19.92C140.8 20.3333 140.8 20.74 140.8 21.14C140.8 21.9 140.813 22.66 140.84 23.42C140.867 24.18 140.9 24.92 140.94 25.64C140.98 26.36 141.013 27.04 141.04 27.68C141.08 28.3067 141.1 28.88 141.1 29.4C141.1 29.8 141.04 30.1933 140.92 30.58C140.813 30.9667 140.627 31.3133 140.36 31.62C140.107 31.9267 139.753 32.1667 139.3 32.34C138.86 32.5267 138.307 32.62 137.64 32.62C136.293 32.62 135.26 32.3667 134.54 31.86C133.833 31.3533 133.48 30.6533 133.48 29.76C133.48 29.2 133.64 28.6933 133.96 28.24C134.293 27.7733 134.76 27.4067 135.36 27.14C135.973 26.8733 136.72 26.74 137.6 26.74C138.453 26.74 139.233 26.84 139.94 27.04C140.66 27.2267 141.32 27.48 141.92 27.8C142.533 28.1067 143.093 28.4533 143.6 28.84C144.107 29.2133 144.573 29.5867 145 29.96L144.12 31.3C143.427 30.6333 142.727 30.0533 142.02 29.56C141.327 29.0667 140.607 28.68 139.86 28.4C139.113 28.12 138.32 27.98 137.48 27.98C136.72 27.98 136.1 28.1333 135.62 28.44C135.153 28.7333 134.92 29.12 134.92 29.6C134.92 30.1067 135.147 30.5 135.6 30.78C136.053 31.0467 136.64 31.18 137.36 31.18C137.933 31.18 138.373 31.0867 138.68 30.9C139 30.7133 139.22 30.46 139.34 30.14C139.473 29.82 139.54 29.44 139.54 29C139.54 28.64 139.527 28.1533 139.5 27.54C139.473 26.9267 139.44 26.26 139.4 25.54C139.36 24.8067 139.327 24.06 139.3 23.3C139.273 22.54 139.26 21.8267 139.26 21.16C139.26 20.48 139.26 19.84 139.26 19.24C139.26 18.64 139.26 18.1667 139.26 17.82C139.26 17.6467 139.253 17.4467 139.24 17.22C139.227 16.98 139.207 16.7733 139.18 16.6H140.98ZM131.1 16.72C131.06 16.8267 131.013 16.9667 130.96 17.14C130.92 17.3 130.88 17.4667 130.84 17.64C130.813 17.8133 130.787 17.96 130.76 18.08C130.68 18.4533 130.593 18.9 130.5 19.42C130.42 19.9267 130.333 20.48 130.24 21.08C130.147 21.6667 130.06 22.2667 129.98 22.88C129.913 23.48 129.86 24.06 129.82 24.62C129.78 25.18 129.76 25.6867 129.76 26.14C129.76 26.62 129.773 27.08 129.8 27.52C129.84 27.96 129.893 28.4267 129.96 28.92C130.067 28.6133 130.187 28.2867 130.32 27.94C130.453 27.5933 130.587 27.2467 130.72 26.9C130.867 26.5533 130.993 26.2467 131.1 25.98L131.92 26.62C131.76 27.0733 131.58 27.5867 131.38 28.16C131.193 28.72 131.013 29.26 130.84 29.78C130.68 30.2867 130.567 30.7067 130.5 31.04C130.473 31.1733 130.447 31.3267 130.42 31.5C130.407 31.6733 130.407 31.82 130.42 31.94C130.42 32.0333 130.42 32.1467 130.42 32.28C130.433 32.4133 130.447 32.5333 130.46 32.64L129.06 32.74C128.86 32.02 128.68 31.1267 128.52 30.06C128.373 28.98 128.3 27.7667 128.3 26.42C128.3 25.6733 128.333 24.9 128.4 24.1C128.48 23.2867 128.567 22.4933 128.66 21.72C128.767 20.9467 128.867 20.24 128.96 19.6C129.067 18.9467 129.153 18.4133 129.22 18C129.247 17.7733 129.273 17.5333 129.3 17.28C129.327 17.0267 129.34 16.7933 129.34 16.58L131.1 16.72ZM153.12 15.2L154.58 15.62C154.22 16.3667 153.793 17.1 153.3 17.82C152.807 18.5267 152.28 19.1867 151.72 19.8C151.173 20.4133 150.62 20.9533 150.06 21.42C149.98 21.3267 149.86 21.22 149.7 21.1C149.553 20.9667 149.4 20.84 149.24 20.72C149.093 20.6 148.96 20.5067 148.84 20.44C149.693 19.8 150.5 19.02 151.26 18.1C152.02 17.18 152.64 16.2133 153.12 15.2ZM152.42 17.5H166.2V18.86H151.92L152.42 17.5ZM149.08 22.22H166.94V23.6H149.08V22.22ZM149.38 27H166.68V28.38H149.38V27ZM155.44 17.96H156.76V27.66H155.44V17.96ZM151.88 17.96H153.22V27.72H151.88V17.96ZM159.06 17.96H160.36V27.72H159.06V17.96ZM162.72 17.96H164.12V27.72H162.72V17.96ZM154.9 29.74L156.28 29.6C156.413 30.1867 156.527 30.82 156.62 31.5C156.713 32.18 156.767 32.7533 156.78 33.22L155.32 33.42C155.32 33.1 155.3 32.7267 155.26 32.3C155.233 31.8867 155.187 31.4533 155.12 31C155.067 30.5467 154.993 30.1267 154.9 29.74ZM158.98 29.74L160.38 29.48C160.567 29.8667 160.747 30.2867 160.92 30.74C161.093 31.18 161.247 31.6067 161.38 32.02C161.513 32.4333 161.613 32.8 161.68 33.12L160.2 33.44C160.107 32.96 159.947 32.3733 159.72 31.68C159.493 30.9867 159.247 30.34 158.98 29.74ZM163.06 29.6L164.48 29.14C164.813 29.5267 165.153 29.96 165.5 30.44C165.847 30.92 166.167 31.3933 166.46 31.86C166.767 32.3133 167.007 32.7267 167.18 33.1L165.7 33.64C165.54 33.28 165.313 32.8667 165.02 32.4C164.74 31.9333 164.427 31.4533 164.08 30.96C163.733 30.4667 163.393 30.0133 163.06 29.6ZM151.4 29.22L152.84 29.58C152.573 30.3267 152.227 31.0667 151.8 31.8C151.373 32.5333 150.887 33.14 150.34 33.62L148.94 33.04C149.46 32.6133 149.94 32.0533 150.38 31.36C150.82 30.6667 151.16 29.9533 151.4 29.22ZM174.16 15.26H175.56V33.58H174.16V15.26ZM170.94 21.92H178.84V23.32H170.94V21.92ZM173.96 22.66L174.86 23.04C174.687 23.7333 174.467 24.4533 174.2 25.2C173.947 25.9333 173.667 26.66 173.36 27.38C173.053 28.1 172.733 28.78 172.4 29.42C172.067 30.0467 171.733 30.5867 171.4 31.04C171.347 30.8933 171.273 30.7333 171.18 30.56C171.1 30.3867 171.007 30.2133 170.9 30.04C170.807 29.8533 170.713 29.7 170.62 29.58C171.047 29.06 171.473 28.4067 171.9 27.62C172.34 26.8333 172.74 26.0067 173.1 25.14C173.46 24.26 173.747 23.4333 173.96 22.66ZM175.54 23.58C175.647 23.7 175.8 23.8933 176 24.16C176.213 24.4267 176.447 24.7267 176.7 25.06C176.967 25.3933 177.227 25.7267 177.48 26.06C177.733 26.3933 177.96 26.7 178.16 26.98C178.36 27.2467 178.5 27.4467 178.58 27.58L177.58 28.76C177.46 28.4933 177.28 28.1533 177.04 27.74C176.8 27.3133 176.533 26.8733 176.24 26.42C175.96 25.9533 175.687 25.52 175.42 25.12C175.167 24.72 174.96 24.4133 174.8 24.2L175.54 23.58ZM171.08 16.76L172.18 16.46C172.38 16.9267 172.553 17.4267 172.7 17.96C172.86 18.4933 173 19.0133 173.12 19.52C173.24 20.0267 173.32 20.4867 173.36 20.9L172.16 21.2C172.147 20.8 172.08 20.3467 171.96 19.84C171.853 19.32 171.72 18.7933 171.56 18.26C171.413 17.7133 171.253 17.2133 171.08 16.76ZM177.54 16.4L178.86 16.74C178.7 17.2333 178.52 17.76 178.32 18.32C178.133 18.8667 177.94 19.4 177.74 19.92C177.553 20.4267 177.373 20.8733 177.2 21.26L176.22 20.94C176.38 20.54 176.54 20.0733 176.7 19.54C176.873 18.9933 177.033 18.4467 177.18 17.9C177.34 17.34 177.46 16.84 177.54 16.4ZM185.3 15.2H186.74V33.58H185.3V15.2ZM178.8 27.94L189.08 26.08L189.32 27.46L179.06 29.32L178.8 27.94ZM180.32 17.66L181.08 16.62C181.467 16.8467 181.86 17.1067 182.26 17.4C182.673 17.68 183.06 17.9667 183.42 18.26C183.78 18.5533 184.067 18.8267 184.28 19.08L183.48 20.22C183.28 19.9667 183 19.6867 182.64 19.38C182.293 19.0733 181.913 18.7667 181.5 18.46C181.1 18.1533 180.707 17.8867 180.32 17.66ZM179.3 22.7L180 21.64C180.4 21.84 180.813 22.0733 181.24 22.34C181.667 22.5933 182.073 22.86 182.46 23.14C182.847 23.4067 183.153 23.66 183.38 23.9L182.64 25.1C182.4 24.86 182.093 24.6 181.72 24.32C181.347 24.0267 180.947 23.74 180.52 23.46C180.107 23.1667 179.7 22.9133 179.3 22.7ZM193.58 18.84C193.953 18.8267 194.293 18.8133 194.6 18.8C194.92 18.7733 195.173 18.7533 195.36 18.74C195.68 18.7 196.14 18.6533 196.74 18.6C197.353 18.5333 198.053 18.4667 198.84 18.4C199.627 18.32 200.473 18.24 201.38 18.16C202.287 18.08 203.2 18 204.12 17.92C204.853 17.8533 205.547 17.8 206.2 17.76C206.853 17.7067 207.46 17.6667 208.02 17.64C208.58 17.6 209.08 17.5733 209.52 17.56V19.16C209.147 19.16 208.72 19.1667 208.24 19.18C207.76 19.1933 207.287 19.22 206.82 19.26C206.353 19.3 205.947 19.3733 205.6 19.48C204.893 19.7067 204.253 20.0533 203.68 20.52C203.12 20.9733 202.64 21.5 202.24 22.1C201.84 22.7 201.533 23.32 201.32 23.96C201.12 24.6 201.02 25.22 201.02 25.82C201.02 26.5933 201.153 27.2733 201.42 27.86C201.687 28.4333 202.047 28.92 202.5 29.32C202.967 29.72 203.493 30.0467 204.08 30.3C204.667 30.5533 205.287 30.7467 205.94 30.88C206.607 31 207.267 31.0667 207.92 31.08L207.34 32.74C206.593 32.7133 205.847 32.6067 205.1 32.42C204.353 32.2467 203.64 31.9933 202.96 31.66C202.28 31.3133 201.673 30.88 201.14 30.36C200.607 29.84 200.187 29.2333 199.88 28.54C199.573 27.8467 199.42 27.0533 199.42 26.16C199.42 25.12 199.6 24.16 199.96 23.28C200.333 22.3867 200.807 21.6067 201.38 20.94C201.953 20.2733 202.547 19.76 203.16 19.4C202.733 19.4533 202.2 19.5133 201.56 19.58C200.933 19.6467 200.26 19.72 199.54 19.8C198.82 19.8667 198.093 19.9467 197.36 20.04C196.64 20.1333 195.967 20.2267 195.34 20.32C194.713 20.4 194.187 20.4867 193.76 20.58L193.58 18.84ZM206.64 21.62C206.787 21.8333 206.96 22.1067 207.16 22.44C207.373 22.76 207.58 23.0933 207.78 23.44C207.98 23.7733 208.147 24.0933 208.28 24.4L207.26 24.88C207.033 24.3867 206.78 23.9 206.5 23.42C206.22 22.9267 205.927 22.4733 205.62 22.06L206.64 21.62ZM208.82 20.78C208.98 20.9933 209.167 21.26 209.38 21.58C209.593 21.9 209.8 22.2333 210 22.58C210.213 22.9133 210.4 23.2333 210.56 23.54L209.52 24.04C209.28 23.5467 209.013 23.06 208.72 22.58C208.44 22.1 208.147 21.6533 207.84 21.24L208.82 20.78ZM226.54 16.16C226.54 16.2267 226.527 16.3467 226.5 16.52C226.487 16.6933 226.473 16.8667 226.46 17.04C226.46 17.2 226.453 17.3267 226.44 17.42C226.427 17.6733 226.42 18.02 226.42 18.46C226.42 18.9 226.42 19.38 226.42 19.9C226.42 20.42 226.42 20.9467 226.42 21.48C226.433 22.0133 226.44 22.5133 226.44 22.98C226.453 23.4467 226.46 23.84 226.46 24.16L224.92 23.4C224.92 23.2133 224.92 22.9333 224.92 22.56C224.92 22.1733 224.92 21.7333 224.92 21.24C224.92 20.7333 224.913 20.2333 224.9 19.74C224.9 19.2467 224.893 18.7933 224.88 18.38C224.867 17.9667 224.853 17.6467 224.84 17.42C224.827 17.1533 224.807 16.9 224.78 16.66C224.753 16.4067 224.733 16.24 224.72 16.16H226.54ZM215.92 18.94C216.467 18.94 217.087 18.9333 217.78 18.92C218.473 18.8933 219.207 18.8667 219.98 18.84C220.767 18.8133 221.56 18.7933 222.36 18.78C223.16 18.7667 223.927 18.7533 224.66 18.74C225.407 18.7267 226.093 18.72 226.72 18.72C227.32 18.72 227.92 18.72 228.52 18.72C229.12 18.72 229.68 18.72 230.2 18.72C230.733 18.72 231.2 18.7267 231.6 18.74C232.013 18.74 232.34 18.74 232.58 18.74L232.56 20.22C232 20.1933 231.247 20.1733 230.3 20.16C229.367 20.1333 228.167 20.12 226.7 20.12C225.833 20.12 224.927 20.1333 223.98 20.16C223.047 20.1733 222.107 20.1933 221.16 20.22C220.213 20.2467 219.293 20.2867 218.4 20.34C217.52 20.38 216.707 20.4267 215.96 20.48L215.92 18.94ZM226.42 24.76C226.42 25.64 226.287 26.38 226.02 26.98C225.767 27.58 225.407 28.0267 224.94 28.32C224.487 28.6133 223.953 28.76 223.34 28.76C222.927 28.76 222.52 28.6933 222.12 28.56C221.733 28.4133 221.38 28.2 221.06 27.92C220.753 27.6267 220.507 27.2733 220.32 26.86C220.147 26.4333 220.06 25.9533 220.06 25.42C220.06 24.7533 220.22 24.16 220.54 23.64C220.86 23.12 221.287 22.7067 221.82 22.4C222.367 22.0933 222.953 21.94 223.58 21.94C224.367 21.94 225.013 22.12 225.52 22.48C226.04 22.8267 226.433 23.3067 226.7 23.92C226.967 24.52 227.1 25.2067 227.1 25.98C227.1 26.6467 227 27.3267 226.8 28.02C226.613 28.7133 226.293 29.38 225.84 30.02C225.4 30.66 224.793 31.2467 224.02 31.78C223.26 32.3 222.293 32.7333 221.12 33.08L219.78 31.76C220.687 31.5467 221.5 31.2733 222.22 30.94C222.94 30.6067 223.547 30.2 224.04 29.72C224.533 29.24 224.907 28.68 225.16 28.04C225.427 27.4 225.56 26.6667 225.56 25.84C225.56 24.9333 225.367 24.28 224.98 23.88C224.593 23.48 224.127 23.28 223.58 23.28C223.233 23.28 222.907 23.3667 222.6 23.54C222.293 23.7 222.04 23.94 221.84 24.26C221.653 24.58 221.56 24.96 221.56 25.4C221.56 26.0267 221.76 26.5133 222.16 26.86C222.573 27.2067 223.053 27.38 223.6 27.38C224.013 27.38 224.367 27.2667 224.66 27.04C224.953 26.8 225.16 26.4467 225.28 25.98C225.413 25.5 225.427 24.9067 225.32 24.2L226.42 24.76ZM244.76 16.4C244.72 16.5733 244.68 16.7667 244.64 16.98C244.6 17.18 244.56 17.38 244.52 17.58C244.48 17.82 244.42 18.1467 244.34 18.56C244.273 18.9733 244.2 19.4133 244.12 19.88C244.04 20.3333 243.947 20.7667 243.84 21.18C243.707 21.7533 243.54 22.4 243.34 23.12C243.14 23.8267 242.913 24.58 242.66 25.38C242.407 26.18 242.12 27 241.8 27.84C241.48 28.6667 241.127 29.4933 240.74 30.32C240.353 31.1333 239.933 31.9 239.48 32.62L237.84 31.98C238.307 31.3667 238.733 30.68 239.12 29.92C239.52 29.16 239.887 28.3733 240.22 27.56C240.553 26.7333 240.853 25.92 241.12 25.12C241.4 24.32 241.633 23.58 241.82 22.9C242.007 22.22 242.153 21.6333 242.26 21.14C242.447 20.34 242.6 19.5133 242.72 18.66C242.84 17.7933 242.9 16.9733 242.9 16.2L244.76 16.4ZM251.64 18.52C251.96 18.9333 252.293 19.4467 252.64 20.06C253 20.6733 253.347 21.3267 253.68 22.02C254.027 22.7133 254.34 23.38 254.62 24.02C254.9 24.66 255.127 25.2133 255.3 25.68L253.74 26.42C253.593 25.9133 253.393 25.3333 253.14 24.68C252.887 24.0133 252.593 23.34 252.26 22.66C251.94 21.9667 251.6 21.32 251.24 20.72C250.893 20.1067 250.54 19.5933 250.18 19.18L251.64 18.52ZM237.56 20.78C237.867 20.8067 238.16 20.82 238.44 20.82C238.72 20.8067 239.02 20.7933 239.34 20.78C239.647 20.7667 240.033 20.7467 240.5 20.72C240.967 20.68 241.473 20.64 242.02 20.6C242.58 20.56 243.127 20.52 243.66 20.48C244.207 20.4267 244.707 20.3867 245.16 20.36C245.627 20.32 245.993 20.3 246.26 20.3C246.86 20.3 247.4 20.3933 247.88 20.58C248.373 20.7667 248.767 21.1067 249.06 21.6C249.353 22.0933 249.5 22.7867 249.5 23.68C249.5 24.4667 249.46 25.32 249.38 26.24C249.313 27.1467 249.193 28.0133 249.02 28.84C248.847 29.6667 248.62 30.3533 248.34 30.9C248.033 31.58 247.633 32.0267 247.14 32.24C246.647 32.4667 246.073 32.58 245.42 32.58C245.047 32.58 244.64 32.5467 244.2 32.48C243.76 32.4267 243.38 32.36 243.06 32.28L242.8 30.62C243.093 30.7 243.387 30.7733 243.68 30.84C243.987 30.9067 244.28 30.9533 244.56 30.98C244.84 31.0067 245.073 31.02 245.26 31.02C245.62 31.02 245.947 30.96 246.24 30.84C246.547 30.7067 246.8 30.4267 247 30C247.213 29.5467 247.387 28.98 247.52 28.3C247.667 27.6067 247.773 26.8733 247.84 26.1C247.92 25.3267 247.96 24.5867 247.96 23.88C247.96 23.2533 247.873 22.7933 247.7 22.5C247.527 22.1933 247.28 21.9867 246.96 21.88C246.64 21.76 246.267 21.7 245.84 21.7C245.493 21.7 245.033 21.7267 244.46 21.78C243.887 21.82 243.273 21.8733 242.62 21.94C241.98 22.0067 241.38 22.0733 240.82 22.14C240.26 22.1933 239.827 22.24 239.52 22.28C239.293 22.3067 239 22.3467 238.64 22.4C238.293 22.44 237.987 22.48 237.72 22.52L237.56 20.78ZM266.9 27.16C266.793 26.6133 266.813 26.12 266.96 25.68C267.12 25.24 267.353 24.8467 267.66 24.5C267.98 24.14 268.327 23.8133 268.7 23.52C269.087 23.2133 269.453 22.9133 269.8 22.62C270.147 22.3267 270.433 22.0267 270.66 21.72C270.887 21.4 271 21.0533 271 20.68C271 20.2133 270.887 19.8 270.66 19.44C270.433 19.08 270.1 18.8 269.66 18.6C269.22 18.3867 268.653 18.28 267.96 18.28C267.28 18.28 266.62 18.4333 265.98 18.74C265.353 19.0333 264.753 19.4867 264.18 20.1L263.1 19.1C263.767 18.3933 264.507 17.8333 265.32 17.42C266.133 16.9933 267.08 16.78 268.16 16.78C269.107 16.78 269.92 16.9333 270.6 17.24C271.293 17.5467 271.827 17.98 272.2 18.54C272.587 19.0867 272.78 19.7467 272.78 20.52C272.78 21.0267 272.667 21.4733 272.44 21.86C272.213 22.2467 271.92 22.6 271.56 22.92C271.213 23.24 270.847 23.5533 270.46 23.86C270.073 24.1533 269.713 24.46 269.38 24.78C269.06 25.1 268.813 25.4533 268.64 25.84C268.48 26.2267 268.447 26.6667 268.54 27.16H266.9ZM267.76 32.1C267.4 32.1 267.093 31.98 266.84 31.74C266.587 31.5 266.46 31.18 266.46 30.78C266.46 30.38 266.587 30.06 266.84 29.82C267.093 29.5667 267.4 29.44 267.76 29.44C268.107 29.44 268.407 29.5667 268.66 29.82C268.913 30.06 269.04 30.38 269.04 30.78C269.04 31.18 268.913 31.5 268.66 31.74C268.407 31.98 268.107 32.1 267.76 32.1Z" fill="#333333"/>
<rect width="52" height="52" rx="26" fill="#333333"/>
<path d="M27.768 42.3579C25.9773 42.3579 24.504 42.0066 23.348 41.3039C22.192 40.6012 21.3307 39.6719 20.764 38.5159C20.1973 37.3826 19.914 36.1472 19.914 34.8099V34.4699H24.538C24.334 36.4192 24.674 37.9606 25.558 39.0939C26.4647 40.2272 27.7227 40.7939 29.332 40.7939C29.8533 40.7939 30.3293 40.7486 30.76 40.6579C31.2133 40.5899 31.6893 40.4539 32.188 40.2499L32.562 41.1339C31.882 41.5192 31.1227 41.8139 30.284 42.0179C29.468 42.2446 28.6293 42.3579 27.768 42.3579ZM22.362 35.2859C20.798 35.2859 19.302 35.0026 17.874 34.4359C16.4687 33.8466 15.222 32.9966 14.134 31.8859C13.046 30.7752 12.1847 29.4039 11.55 27.7719C10.938 26.1172 10.632 24.2132 10.632 22.0599C10.632 19.9066 10.938 18.0139 11.55 16.3819C12.1847 14.7272 13.046 13.3446 14.134 12.2339C15.222 11.1006 16.4687 10.2506 17.874 9.68389C19.302 9.11722 20.798 8.83389 22.362 8.83389C23.9487 8.83389 25.4333 9.11722 26.816 9.68389C28.2213 10.2506 29.468 11.1006 30.556 12.2339C31.6667 13.3446 32.528 14.7272 33.14 16.3819C33.7747 18.0139 34.092 19.9066 34.092 22.0599C34.092 24.1906 33.7747 26.0832 33.14 27.7379C32.528 29.3699 31.6667 30.7526 30.556 31.8859C29.468 32.9966 28.2213 33.8466 26.816 34.4359C25.4333 35.0026 23.9487 35.2859 22.362 35.2859ZM22.362 34.0279C23.4953 34.0279 24.47 33.7219 25.286 33.1099C26.1247 32.4979 26.816 31.6592 27.36 30.5939C27.904 29.5059 28.312 28.2366 28.584 26.7859C28.856 25.3126 28.992 23.7372 28.992 22.0599C28.992 20.3599 28.856 18.7846 28.584 17.3339C28.312 15.8832 27.904 14.6139 27.36 13.5259C26.816 12.4379 26.1247 11.5992 25.286 11.0099C24.47 10.3979 23.4953 10.0919 22.362 10.0919C21.2287 10.0919 20.2427 10.3979 19.404 11.0099C18.5653 11.5992 17.874 12.4379 17.33 13.5259C16.786 14.6139 16.378 15.8832 16.106 17.3339C15.834 18.7846 15.698 20.3599 15.698 22.0599C15.698 23.7372 15.834 25.3126 16.106 26.7859C16.378 28.2366 16.786 29.5059 17.33 30.5939C17.874 31.6592 18.5653 32.4979 19.404 33.1099C20.2427 33.7219 21.2287 34.0279 22.362 34.0279ZM40.1124 35.1839C39.3191 35.1839 38.6504 34.9119 38.1064 34.3679C37.5851 33.8239 37.3244 33.1779 37.3244 32.4299C37.3244 31.6819 37.5851 31.0359 38.1064 30.4919C38.6504 29.9252 39.3191 29.6419 40.1124 29.6419C40.8831 29.6419 41.5291 29.9252 42.0504 30.4919C42.5944 31.0359 42.8664 31.6819 42.8664 32.4299C42.8664 33.1779 42.5944 33.8239 42.0504 34.3679C41.5291 34.9119 40.8831 35.1839 40.1124 35.1839Z" fill="white"/>
</svg>
